<mxfile host="app.diagrams.net" modified="2022-01-10T18:28:31.827Z" agent="5.0 (Windows NT 10.0; Win64; x64) AppleWebKit/537.36 (KHTML, like Gecko) Chrome/97.0.4692.71 Safari/537.36 Edg/97.0.1072.55" etag="EOUKaZYqFzP1vZdCdTzp" version="16.2.4" type="github" pages="2">
  <diagram id="ZxHcsco9b7L7-rvQ7Xql" name="Page-1">
    <mxGraphModel dx="1367" dy="790" grid="1" gridSize="10" guides="1" tooltips="1" connect="1" arrows="1" fold="1" page="1" pageScale="1" pageWidth="827" pageHeight="1169" math="0" shadow="0">
      <root>
        <mxCell id="84KTpsVSsy3dv5a97gq0-0" />
        <mxCell id="84KTpsVSsy3dv5a97gq0-1" parent="84KTpsVSsy3dv5a97gq0-0" />
        <mxCell id="VHExa22E0oMRANANASpj-0" value="" style="endArrow=none;html=1;strokeWidth=1;fontFamily=Courier New;fontColor=#009900;entryX=0.5;entryY=1;entryDx=0;entryDy=0;entryPerimeter=0;dashed=1;endFill=0;" parent="84KTpsVSsy3dv5a97gq0-1" source="ULyehuTYYwsjFRRzDHKz-90" target="VHExa22E0oMRANANASpj-7" edge="1">
          <mxGeometry width="50" height="50" relative="1" as="geometry">
            <mxPoint x="1248.0100000000002" y="220" as="sourcePoint" />
            <mxPoint x="1248.17" y="185" as="targetPoint" />
          </mxGeometry>
        </mxCell>
        <mxCell id="VHExa22E0oMRANANASpj-2" value="" style="edgeStyle=orthogonalEdgeStyle;rounded=0;html=1;jettySize=auto;orthogonalLoop=1;plain-blue;endArrow=openThin;endFill=0;strokeWidth=4;strokeColor=#000000;" parent="84KTpsVSsy3dv5a97gq0-1" source="VHExa22E0oMRANANASpj-4" edge="1">
          <mxGeometry x="1186.38" y="95" as="geometry">
            <mxPoint x="1360" y="95" as="targetPoint" />
          </mxGeometry>
        </mxCell>
        <mxCell id="VHExa22E0oMRANANASpj-3" style="edgeStyle=orthogonalEdgeStyle;curved=1;rounded=0;html=1;exitX=1;exitY=0.5;exitPerimeter=0;entryX=0;entryY=0.5;entryPerimeter=0;endArrow=none;endFill=0;jettySize=auto;orthogonalLoop=1;strokeWidth=4;fontSize=15;" parent="84KTpsVSsy3dv5a97gq0-1" source="VHExa22E0oMRANANASpj-4" target="VHExa22E0oMRANANASpj-7" edge="1">
          <mxGeometry relative="1" as="geometry" />
        </mxCell>
        <mxCell id="VHExa22E0oMRANANASpj-4" value="" style="verticalLabelPosition=bottom;verticalAlign=top;html=1;strokeWidth=4;shape=mxgraph.flowchart.on-page_reference;plain-blue;gradientColor=none;fillColor=#B5E3Fe;strokeColor=#000000;" parent="84KTpsVSsy3dv5a97gq0-1" vertex="1">
          <mxGeometry x="1156.38" y="80" width="30" height="30" as="geometry" />
        </mxCell>
        <mxCell id="VHExa22E0oMRANANASpj-5" value="" style="edgeStyle=orthogonalEdgeStyle;rounded=0;html=1;jettySize=auto;orthogonalLoop=1;strokeWidth=4;endArrow=none;endFill=0;" parent="84KTpsVSsy3dv5a97gq0-1" target="VHExa22E0oMRANANASpj-4" edge="1">
          <mxGeometry x="1086.38" y="95" as="geometry">
            <mxPoint x="1041.88" y="95" as="sourcePoint" />
          </mxGeometry>
        </mxCell>
        <mxCell id="VHExa22E0oMRANANASpj-6" value="&lt;font style=&quot;font-size: 17px&quot;&gt;master&lt;/font&gt;" style="text;html=1;strokeColor=none;fillColor=none;align=center;verticalAlign=middle;whiteSpace=wrap;overflow=hidden;fontSize=14;fontStyle=1;fontFamily=Courier New;" parent="84KTpsVSsy3dv5a97gq0-1" vertex="1">
          <mxGeometry x="918.38" y="85" width="70" height="20" as="geometry" />
        </mxCell>
        <mxCell id="VHExa22E0oMRANANASpj-7" value="" style="verticalLabelPosition=bottom;verticalAlign=top;html=1;strokeWidth=4;shape=mxgraph.flowchart.on-page_reference;plain-purple;gradientColor=none;strokeColor=#000000;fillColor=#D5E8D4;" parent="84KTpsVSsy3dv5a97gq0-1" vertex="1">
          <mxGeometry x="1229.38" y="145" width="32.5" height="30" as="geometry" />
        </mxCell>
        <mxCell id="VHExa22E0oMRANANASpj-9" value="&lt;font style=&quot;font-size: 17px&quot;&gt;development&lt;br&gt;&lt;/font&gt;" style="text;html=1;strokeColor=none;fillColor=none;align=center;verticalAlign=middle;whiteSpace=wrap;overflow=hidden;fontSize=14;fontStyle=1;fontFamily=Courier New;" parent="84KTpsVSsy3dv5a97gq0-1" vertex="1">
          <mxGeometry x="908.38" y="155" width="133.5" height="20" as="geometry" />
        </mxCell>
        <mxCell id="VHExa22E0oMRANANASpj-10" value="Img1" style="text;html=1;align=center;verticalAlign=middle;resizable=0;points=[];autosize=1;strokeColor=none;fillColor=none;fontSize=16;" parent="84KTpsVSsy3dv5a97gq0-1" vertex="1">
          <mxGeometry x="827" y="30" width="50" height="20" as="geometry" />
        </mxCell>
        <mxCell id="jlc7M-yRpXKQTq9MkuZx-2" value="" style="edgeStyle=orthogonalEdgeStyle;rounded=0;html=1;jettySize=auto;orthogonalLoop=1;plain-blue;endArrow=none;endFill=0;strokeWidth=4;strokeColor=#000000;sketch=1;" parent="84KTpsVSsy3dv5a97gq0-1" source="jlc7M-yRpXKQTq9MkuZx-4" target="jlc7M-yRpXKQTq9MkuZx-6" edge="1">
          <mxGeometry x="1105.13" y="690" as="geometry" />
        </mxCell>
        <mxCell id="jlc7M-yRpXKQTq9MkuZx-3" style="edgeStyle=orthogonalEdgeStyle;curved=1;rounded=0;html=1;exitX=1;exitY=0.5;exitPerimeter=0;entryX=0;entryY=0.5;entryPerimeter=0;endArrow=none;endFill=0;jettySize=auto;orthogonalLoop=1;strokeWidth=4;fontSize=15;sketch=1;" parent="84KTpsVSsy3dv5a97gq0-1" source="jlc7M-yRpXKQTq9MkuZx-4" target="jlc7M-yRpXKQTq9MkuZx-11" edge="1">
          <mxGeometry relative="1" as="geometry" />
        </mxCell>
        <mxCell id="jlc7M-yRpXKQTq9MkuZx-4" value="" style="verticalLabelPosition=bottom;verticalAlign=top;html=1;strokeWidth=4;shape=mxgraph.flowchart.on-page_reference;plain-blue;gradientColor=none;fillColor=#B5E3Fe;strokeColor=#000000;" parent="84KTpsVSsy3dv5a97gq0-1" vertex="1">
          <mxGeometry x="1075.13" y="675" width="30" height="30" as="geometry" />
        </mxCell>
        <mxCell id="jlc7M-yRpXKQTq9MkuZx-5" value="" style="edgeStyle=orthogonalEdgeStyle;curved=1;rounded=0;orthogonalLoop=1;jettySize=auto;html=1;endArrow=none;endFill=0;strokeWidth=4;fontFamily=Courier New;fontSize=16;" parent="84KTpsVSsy3dv5a97gq0-1" source="jlc7M-yRpXKQTq9MkuZx-6" edge="1">
          <mxGeometry relative="1" as="geometry">
            <mxPoint x="1394.38" y="690" as="targetPoint" />
          </mxGeometry>
        </mxCell>
        <mxCell id="jlc7M-yRpXKQTq9MkuZx-6" value="" style="verticalLabelPosition=bottom;verticalAlign=top;html=1;strokeWidth=4;shape=mxgraph.flowchart.on-page_reference;plain-blue;gradientColor=none;strokeColor=#000000;" parent="84KTpsVSsy3dv5a97gq0-1" vertex="1">
          <mxGeometry x="1313.38" y="675" width="30" height="30" as="geometry" />
        </mxCell>
        <mxCell id="jlc7M-yRpXKQTq9MkuZx-7" value="" style="edgeStyle=orthogonalEdgeStyle;curved=1;rounded=0;orthogonalLoop=1;jettySize=auto;html=1;endArrow=openThin;endFill=0;strokeWidth=4;fontFamily=Courier New;fontSize=16;startArrow=none;startFill=0;sketch=1;" parent="84KTpsVSsy3dv5a97gq0-1" edge="1">
          <mxGeometry relative="1" as="geometry">
            <mxPoint x="1343.38" y="689.5" as="sourcePoint" />
            <mxPoint x="1680" y="690" as="targetPoint" />
            <Array as="points">
              <mxPoint x="1480.63" y="690" />
              <mxPoint x="1480.63" y="690" />
            </Array>
          </mxGeometry>
        </mxCell>
        <mxCell id="jlc7M-yRpXKQTq9MkuZx-8" value="" style="edgeStyle=orthogonalEdgeStyle;rounded=0;html=1;jettySize=auto;orthogonalLoop=1;strokeWidth=4;endArrow=none;endFill=0;sketch=1;" parent="84KTpsVSsy3dv5a97gq0-1" target="jlc7M-yRpXKQTq9MkuZx-4" edge="1">
          <mxGeometry x="1005.13" y="690" as="geometry">
            <mxPoint x="960.63" y="690" as="sourcePoint" />
          </mxGeometry>
        </mxCell>
        <mxCell id="jlc7M-yRpXKQTq9MkuZx-10" style="edgeStyle=orthogonalEdgeStyle;curved=1;rounded=0;html=1;exitX=1;exitY=0.5;exitPerimeter=0;entryX=0;entryY=0.5;entryPerimeter=0;endArrow=none;endFill=0;jettySize=auto;orthogonalLoop=1;strokeWidth=4;fontSize=15;sketch=1;" parent="84KTpsVSsy3dv5a97gq0-1" source="jlc7M-yRpXKQTq9MkuZx-11" edge="1">
          <mxGeometry relative="1" as="geometry">
            <mxPoint x="1220.13" y="770" as="targetPoint" />
          </mxGeometry>
        </mxCell>
        <mxCell id="jlc7M-yRpXKQTq9MkuZx-11" value="" style="verticalLabelPosition=bottom;verticalAlign=top;html=1;strokeWidth=4;shape=mxgraph.flowchart.on-page_reference;plain-purple;gradientColor=none;strokeColor=#000000;fillColor=#D5E8D4;" parent="84KTpsVSsy3dv5a97gq0-1" vertex="1">
          <mxGeometry x="1148.13" y="755" width="30" height="30" as="geometry" />
        </mxCell>
        <mxCell id="jlc7M-yRpXKQTq9MkuZx-12" style="edgeStyle=orthogonalEdgeStyle;curved=1;rounded=0;html=1;entryX=0;entryY=0.5;entryPerimeter=0;endArrow=none;endFill=0;jettySize=auto;orthogonalLoop=1;strokeWidth=4;fontSize=15;sketch=1;" parent="84KTpsVSsy3dv5a97gq0-1" target="jlc7M-yRpXKQTq9MkuZx-6" edge="1">
          <mxGeometry relative="1" as="geometry">
            <mxPoint x="1252.63" y="770" as="sourcePoint" />
          </mxGeometry>
        </mxCell>
        <mxCell id="jlc7M-yRpXKQTq9MkuZx-17" value="&lt;b&gt;M&lt;/b&gt;" style="whiteSpace=wrap;html=1;verticalAlign=top;fillColor=#D5E8D4;strokeColor=#000000;strokeWidth=4;gradientColor=none;" parent="84KTpsVSsy3dv5a97gq0-1" vertex="1">
          <mxGeometry x="1222.13" y="755" width="30" height="30" as="geometry" />
        </mxCell>
        <mxCell id="jlc7M-yRpXKQTq9MkuZx-20" value="&lt;div&gt;&lt;b&gt;&lt;font style=&quot;font-size: 13px&quot;&gt;M&lt;/font&gt;&lt;/b&gt;&lt;/div&gt;" style="whiteSpace=wrap;html=1;verticalAlign=top;fillColor=#DAE8FC;strokeColor=#000000;strokeWidth=4;gradientColor=none;align=center;" parent="84KTpsVSsy3dv5a97gq0-1" vertex="1">
          <mxGeometry x="1394.38" y="675" width="30" height="30" as="geometry" />
        </mxCell>
        <mxCell id="jlc7M-yRpXKQTq9MkuZx-21" value="" style="edgeStyle=orthogonalEdgeStyle;curved=1;rounded=0;orthogonalLoop=1;jettySize=auto;html=1;endArrow=none;endFill=0;strokeWidth=4;fontFamily=Courier New;fontSize=16;exitX=0.5;exitY=0;exitDx=0;exitDy=0;sketch=1;" parent="84KTpsVSsy3dv5a97gq0-1" source="jlc7M-yRpXKQTq9MkuZx-20" edge="1">
          <mxGeometry relative="1" as="geometry">
            <mxPoint x="1434.38" y="700" as="sourcePoint" />
            <mxPoint x="1472.63" y="620" as="targetPoint" />
          </mxGeometry>
        </mxCell>
        <mxCell id="jlc7M-yRpXKQTq9MkuZx-22" value="" style="verticalLabelPosition=bottom;verticalAlign=top;html=1;strokeWidth=4;shape=mxgraph.flowchart.on-page_reference;strokeColor=#2D7600;fillColor=#60a917;fontColor=#ffffff;" parent="84KTpsVSsy3dv5a97gq0-1" vertex="1">
          <mxGeometry x="1457.38" y="590" width="30" height="30" as="geometry" />
        </mxCell>
        <mxCell id="jlc7M-yRpXKQTq9MkuZx-42" value="&lt;font style=&quot;font-size: 17px&quot;&gt;master&lt;/font&gt;" style="text;html=1;strokeColor=none;fillColor=none;align=center;verticalAlign=middle;whiteSpace=wrap;overflow=hidden;fontSize=14;fontStyle=1;fontFamily=Courier New;" parent="84KTpsVSsy3dv5a97gq0-1" vertex="1">
          <mxGeometry x="838.38" y="675" width="70" height="20" as="geometry" />
        </mxCell>
        <mxCell id="jlc7M-yRpXKQTq9MkuZx-43" value="&lt;font style=&quot;font-size: 17px&quot;&gt;development&lt;/font&gt;" style="text;html=1;strokeColor=none;fillColor=none;align=center;verticalAlign=middle;whiteSpace=wrap;overflow=hidden;fontSize=14;fontStyle=1;fontFamily=Courier New;" parent="84KTpsVSsy3dv5a97gq0-1" vertex="1">
          <mxGeometry x="838.38" y="750" width="121.62" height="20" as="geometry" />
        </mxCell>
        <mxCell id="jlc7M-yRpXKQTq9MkuZx-44" value="&lt;font style=&quot;font-size: 17px&quot;&gt;release&lt;/font&gt;" style="text;html=1;strokeColor=none;fillColor=none;align=center;verticalAlign=middle;whiteSpace=wrap;overflow=hidden;fontSize=14;fontStyle=1;fontFamily=Courier New;" parent="84KTpsVSsy3dv5a97gq0-1" vertex="1">
          <mxGeometry x="838.38" y="590" width="81.62" height="20" as="geometry" />
        </mxCell>
        <mxCell id="jlc7M-yRpXKQTq9MkuZx-47" value="&lt;font style=&quot;font-size: 15px&quot;&gt;New development start&lt;/font&gt;" style="shape=callout;whiteSpace=wrap;html=1;perimeter=calloutPerimeter;fontSize=16;position2=0.1;rotation=0;base=13;size=40;position=0.26;snapToPoint=0;rounded=0;shadow=0;sketch=1;direction=west;" parent="84KTpsVSsy3dv5a97gq0-1" vertex="1">
          <mxGeometry x="979.25" y="735" width="163" height="60" as="geometry" />
        </mxCell>
        <mxCell id="jlc7M-yRpXKQTq9MkuZx-49" value="&lt;font style=&quot;font-size: 14px&quot;&gt;UAT Start&lt;/font&gt;" style="shape=callout;whiteSpace=wrap;html=1;perimeter=calloutPerimeter;fontSize=16;position2=1;rotation=0;base=11;size=30;position=0.61;snapToPoint=0;rounded=0;shadow=0;sketch=1;direction=west;arcSize=15;" parent="84KTpsVSsy3dv5a97gq0-1" vertex="1">
          <mxGeometry x="1283.38" y="735" width="90" height="50" as="geometry" />
        </mxCell>
        <mxCell id="jlc7M-yRpXKQTq9MkuZx-50" value="&lt;font style=&quot;font-size: 14px&quot;&gt;UAT Complete&lt;/font&gt;" style="shape=callout;whiteSpace=wrap;html=1;perimeter=calloutPerimeter;fontSize=16;position2=0.94;rotation=0;base=11;size=50;position=0.56;snapToPoint=0;rounded=0;shadow=0;sketch=1;direction=east;arcSize=15;" parent="84KTpsVSsy3dv5a97gq0-1" vertex="1">
          <mxGeometry x="1309.25" y="570" width="109" height="75" as="geometry" />
        </mxCell>
        <mxCell id="jlc7M-yRpXKQTq9MkuZx-60" style="rounded=0;sketch=1;orthogonalLoop=1;jettySize=auto;html=1;entryX=0.5;entryY=1;entryDx=0;entryDy=0;entryPerimeter=0;fontSize=15;endArrow=none;endFill=0;dashed=1;" parent="84KTpsVSsy3dv5a97gq0-1" source="jlc7M-yRpXKQTq9MkuZx-54" target="jlc7M-yRpXKQTq9MkuZx-11" edge="1">
          <mxGeometry relative="1" as="geometry" />
        </mxCell>
        <mxCell id="jlc7M-yRpXKQTq9MkuZx-54" value="&lt;span style=&quot;font-size: 16px&quot;&gt;feature/Dev20220117_LoanPayments&lt;/span&gt;" style="text;html=1;strokeColor=#82b366;fillColor=#d5e8d4;align=center;verticalAlign=middle;whiteSpace=wrap;overflow=hidden;rounded=0;shadow=0;sketch=1;fontSize=15;" parent="84KTpsVSsy3dv5a97gq0-1" vertex="1">
          <mxGeometry x="993.38" y="830" width="290" height="20" as="geometry" />
        </mxCell>
        <mxCell id="Yfrm37MvhDvbOV5HHXXn-0" value="&lt;span style=&quot;text-align: center ; background-color: rgb(248 , 249 , 250)&quot;&gt;UAT20220117_LoanPayments&lt;/span&gt;" style="shape=image;html=1;verticalAlign=middle;verticalLabelPosition=middle;labelBackgroundColor=#ffffff;imageAspect=0;aspect=fixed;image=https://cdn1.iconfinder.com/data/icons/32-soft-media-icons--Vol-2/33/tag.png;rounded=0;shadow=0;sketch=1;fontSize=13;fillColor=none;gradientColor=none;direction=east;rotation=0;textDirection=ltr;labelPosition=right;align=left;" parent="84KTpsVSsy3dv5a97gq0-1" vertex="1">
          <mxGeometry x="1186.38" y="645" width="20" height="20" as="geometry" />
        </mxCell>
        <mxCell id="Yfrm37MvhDvbOV5HHXXn-1" value="&lt;span style=&quot;text-align: center ; background-color: rgb(248 , 249 , 250)&quot;&gt;Rel20220117_LoanPayments&lt;/span&gt;" style="shape=image;html=1;verticalAlign=middle;verticalLabelPosition=middle;labelBackgroundColor=#ffffff;imageAspect=0;aspect=fixed;image=https://cdn1.iconfinder.com/data/icons/32-soft-media-icons--Vol-2/33/tag.png;rounded=0;shadow=0;sketch=1;fontSize=13;fillColor=none;gradientColor=none;direction=east;rotation=0;textDirection=ltr;labelPosition=right;align=left;" parent="84KTpsVSsy3dv5a97gq0-1" vertex="1">
          <mxGeometry x="1457.38" y="645" width="20" height="20" as="geometry" />
        </mxCell>
        <mxCell id="Yfrm37MvhDvbOV5HHXXn-2" value="&lt;span style=&quot;font-size: 16px&quot;&gt;release/Rel20220117_LoanPayments&lt;/span&gt;" style="text;html=1;strokeColor=#82b366;fillColor=#B3E8B3;align=center;verticalAlign=middle;whiteSpace=wrap;overflow=hidden;rounded=0;shadow=0;sketch=1;fontSize=15;" parent="84KTpsVSsy3dv5a97gq0-1" vertex="1">
          <mxGeometry x="1350" y="520" width="290" height="20" as="geometry" />
        </mxCell>
        <mxCell id="Yfrm37MvhDvbOV5HHXXn-3" style="rounded=0;sketch=1;orthogonalLoop=1;jettySize=auto;html=1;fontSize=15;endArrow=none;endFill=0;dashed=1;exitX=0.5;exitY=0;exitDx=0;exitDy=0;exitPerimeter=0;" parent="84KTpsVSsy3dv5a97gq0-1" source="jlc7M-yRpXKQTq9MkuZx-22" target="Yfrm37MvhDvbOV5HHXXn-2" edge="1">
          <mxGeometry relative="1" as="geometry">
            <mxPoint x="1477.38" y="585" as="sourcePoint" />
            <mxPoint x="1497.63" y="540" as="targetPoint" />
          </mxGeometry>
        </mxCell>
        <mxCell id="Yfrm37MvhDvbOV5HHXXn-4" value="" style="edgeStyle=orthogonalEdgeStyle;rounded=0;html=1;jettySize=auto;orthogonalLoop=1;plain-blue;endArrow=none;endFill=0;strokeWidth=4;strokeColor=#000000;sketch=1;" parent="84KTpsVSsy3dv5a97gq0-1" source="Yfrm37MvhDvbOV5HHXXn-6" target="Yfrm37MvhDvbOV5HHXXn-8" edge="1">
          <mxGeometry x="1120.38" y="1212" as="geometry" />
        </mxCell>
        <mxCell id="Yfrm37MvhDvbOV5HHXXn-5" style="edgeStyle=orthogonalEdgeStyle;curved=1;rounded=0;html=1;exitX=1;exitY=0.5;exitPerimeter=0;entryX=0;entryY=0.5;entryPerimeter=0;endArrow=none;endFill=0;jettySize=auto;orthogonalLoop=1;strokeWidth=4;fontSize=15;sketch=1;" parent="84KTpsVSsy3dv5a97gq0-1" source="Yfrm37MvhDvbOV5HHXXn-6" target="Yfrm37MvhDvbOV5HHXXn-12" edge="1">
          <mxGeometry relative="1" as="geometry" />
        </mxCell>
        <mxCell id="Yfrm37MvhDvbOV5HHXXn-6" value="" style="verticalLabelPosition=bottom;verticalAlign=top;html=1;strokeWidth=4;shape=mxgraph.flowchart.on-page_reference;plain-blue;gradientColor=none;fillColor=#B5E3Fe;strokeColor=#000000;" parent="84KTpsVSsy3dv5a97gq0-1" vertex="1">
          <mxGeometry x="1090.38" y="1197" width="30" height="30" as="geometry" />
        </mxCell>
        <mxCell id="Yfrm37MvhDvbOV5HHXXn-7" value="" style="edgeStyle=orthogonalEdgeStyle;curved=1;rounded=0;orthogonalLoop=1;jettySize=auto;html=1;endArrow=none;endFill=0;strokeWidth=4;fontFamily=Courier New;fontSize=16;" parent="84KTpsVSsy3dv5a97gq0-1" source="Yfrm37MvhDvbOV5HHXXn-8" edge="1">
          <mxGeometry relative="1" as="geometry">
            <mxPoint x="1409.63" y="1212" as="targetPoint" />
          </mxGeometry>
        </mxCell>
        <mxCell id="Yfrm37MvhDvbOV5HHXXn-8" value="" style="verticalLabelPosition=bottom;verticalAlign=top;html=1;strokeWidth=4;shape=mxgraph.flowchart.on-page_reference;plain-blue;gradientColor=none;strokeColor=#000000;" parent="84KTpsVSsy3dv5a97gq0-1" vertex="1">
          <mxGeometry x="1328.63" y="1197" width="30" height="30" as="geometry" />
        </mxCell>
        <mxCell id="Yfrm37MvhDvbOV5HHXXn-9" value="" style="edgeStyle=orthogonalEdgeStyle;curved=1;rounded=0;orthogonalLoop=1;jettySize=auto;html=1;endArrow=openThin;endFill=0;strokeWidth=4;fontFamily=Courier New;fontSize=16;startArrow=none;startFill=0;sketch=1;" parent="84KTpsVSsy3dv5a97gq0-1" edge="1">
          <mxGeometry relative="1" as="geometry">
            <mxPoint x="1358.63" y="1211.5" as="sourcePoint" />
            <mxPoint x="2110" y="1212" as="targetPoint" />
            <Array as="points">
              <mxPoint x="1495.88" y="1212" />
              <mxPoint x="1495.88" y="1212" />
            </Array>
          </mxGeometry>
        </mxCell>
        <mxCell id="Yfrm37MvhDvbOV5HHXXn-10" value="" style="edgeStyle=orthogonalEdgeStyle;rounded=0;html=1;jettySize=auto;orthogonalLoop=1;strokeWidth=4;endArrow=none;endFill=0;sketch=1;" parent="84KTpsVSsy3dv5a97gq0-1" target="Yfrm37MvhDvbOV5HHXXn-6" edge="1">
          <mxGeometry x="1020.38" y="1212" as="geometry">
            <mxPoint x="975.8800000000001" y="1212" as="sourcePoint" />
          </mxGeometry>
        </mxCell>
        <mxCell id="Yfrm37MvhDvbOV5HHXXn-11" style="edgeStyle=orthogonalEdgeStyle;curved=1;rounded=0;html=1;exitX=1;exitY=0.5;exitPerimeter=0;entryX=0;entryY=0.5;entryPerimeter=0;endArrow=none;endFill=0;jettySize=auto;orthogonalLoop=1;strokeWidth=4;fontSize=15;sketch=1;" parent="84KTpsVSsy3dv5a97gq0-1" source="Yfrm37MvhDvbOV5HHXXn-12" edge="1">
          <mxGeometry relative="1" as="geometry">
            <mxPoint x="1235.38" y="1292" as="targetPoint" />
          </mxGeometry>
        </mxCell>
        <mxCell id="Yfrm37MvhDvbOV5HHXXn-12" value="" style="verticalLabelPosition=bottom;verticalAlign=top;html=1;strokeWidth=4;shape=mxgraph.flowchart.on-page_reference;plain-purple;gradientColor=none;strokeColor=#000000;fillColor=#D5E8D4;" parent="84KTpsVSsy3dv5a97gq0-1" vertex="1">
          <mxGeometry x="1163.38" y="1277" width="30" height="30" as="geometry" />
        </mxCell>
        <mxCell id="Yfrm37MvhDvbOV5HHXXn-13" style="edgeStyle=orthogonalEdgeStyle;curved=1;rounded=0;html=1;entryX=0;entryY=0.5;entryPerimeter=0;endArrow=none;endFill=0;jettySize=auto;orthogonalLoop=1;strokeWidth=4;fontSize=15;sketch=1;" parent="84KTpsVSsy3dv5a97gq0-1" target="Yfrm37MvhDvbOV5HHXXn-8" edge="1">
          <mxGeometry relative="1" as="geometry">
            <mxPoint x="1267.88" y="1292" as="sourcePoint" />
          </mxGeometry>
        </mxCell>
        <mxCell id="Yfrm37MvhDvbOV5HHXXn-14" value="&lt;b&gt;M&lt;/b&gt;" style="whiteSpace=wrap;html=1;verticalAlign=top;fillColor=#D5E8D4;strokeColor=#000000;strokeWidth=4;gradientColor=none;" parent="84KTpsVSsy3dv5a97gq0-1" vertex="1">
          <mxGeometry x="1237.38" y="1277" width="30" height="30" as="geometry" />
        </mxCell>
        <mxCell id="Yfrm37MvhDvbOV5HHXXn-15" value="&lt;div&gt;&lt;b&gt;&lt;font style=&quot;font-size: 13px&quot;&gt;M&lt;/font&gt;&lt;/b&gt;&lt;/div&gt;" style="whiteSpace=wrap;html=1;verticalAlign=top;fillColor=#DAE8FC;strokeColor=#000000;strokeWidth=4;gradientColor=none;align=center;" parent="84KTpsVSsy3dv5a97gq0-1" vertex="1">
          <mxGeometry x="1409.63" y="1197" width="30" height="30" as="geometry" />
        </mxCell>
        <mxCell id="Yfrm37MvhDvbOV5HHXXn-16" value="" style="edgeStyle=orthogonalEdgeStyle;curved=1;rounded=0;orthogonalLoop=1;jettySize=auto;html=1;endArrow=none;endFill=0;strokeWidth=4;fontFamily=Courier New;fontSize=16;exitX=0.5;exitY=0;exitDx=0;exitDy=0;sketch=1;entryX=0.5;entryY=1;entryDx=0;entryDy=0;entryPerimeter=0;" parent="84KTpsVSsy3dv5a97gq0-1" source="Yfrm37MvhDvbOV5HHXXn-15" target="Yfrm37MvhDvbOV5HHXXn-17" edge="1">
          <mxGeometry relative="1" as="geometry">
            <mxPoint x="1449.63" y="1165" as="sourcePoint" />
            <mxPoint x="1487.88" y="1085" as="targetPoint" />
          </mxGeometry>
        </mxCell>
        <mxCell id="Yfrm37MvhDvbOV5HHXXn-17" value="" style="verticalLabelPosition=bottom;verticalAlign=top;html=1;strokeWidth=4;shape=mxgraph.flowchart.on-page_reference;strokeColor=#2D7600;fillColor=#60a917;fontColor=#ffffff;" parent="84KTpsVSsy3dv5a97gq0-1" vertex="1">
          <mxGeometry x="1497.38" y="1005" width="30" height="30" as="geometry" />
        </mxCell>
        <mxCell id="Yfrm37MvhDvbOV5HHXXn-18" value="&lt;font style=&quot;font-size: 17px&quot;&gt;master&lt;/font&gt;" style="text;html=1;strokeColor=none;fillColor=none;align=center;verticalAlign=middle;whiteSpace=wrap;overflow=hidden;fontSize=14;fontStyle=1;fontFamily=Courier New;" parent="84KTpsVSsy3dv5a97gq0-1" vertex="1">
          <mxGeometry x="853.63" y="1197" width="70" height="20" as="geometry" />
        </mxCell>
        <mxCell id="Yfrm37MvhDvbOV5HHXXn-19" value="&lt;font style=&quot;font-size: 17px&quot;&gt;development&lt;/font&gt;" style="text;html=1;strokeColor=none;fillColor=none;align=center;verticalAlign=middle;whiteSpace=wrap;overflow=hidden;fontSize=14;fontStyle=1;fontFamily=Courier New;" parent="84KTpsVSsy3dv5a97gq0-1" vertex="1">
          <mxGeometry x="853.63" y="1280" width="121.62" height="20" as="geometry" />
        </mxCell>
        <mxCell id="Yfrm37MvhDvbOV5HHXXn-20" value="&lt;font style=&quot;font-size: 17px&quot;&gt;release&lt;/font&gt;" style="text;html=1;strokeColor=none;fillColor=none;align=center;verticalAlign=middle;whiteSpace=wrap;overflow=hidden;fontSize=14;fontStyle=1;fontFamily=Courier New;" parent="84KTpsVSsy3dv5a97gq0-1" vertex="1">
          <mxGeometry x="853.63" y="1008" width="81.62" height="20" as="geometry" />
        </mxCell>
        <mxCell id="Yfrm37MvhDvbOV5HHXXn-21" value="&lt;font style=&quot;font-size: 15px&quot;&gt;New development start&lt;/font&gt;" style="shape=callout;whiteSpace=wrap;html=1;perimeter=calloutPerimeter;fontSize=16;position2=0.1;rotation=0;base=13;size=40;position=0.26;snapToPoint=0;rounded=0;shadow=0;sketch=1;direction=west;" parent="84KTpsVSsy3dv5a97gq0-1" vertex="1">
          <mxGeometry x="994.5" y="1257" width="163" height="60" as="geometry" />
        </mxCell>
        <mxCell id="Yfrm37MvhDvbOV5HHXXn-22" value="&lt;font style=&quot;font-size: 14px&quot;&gt;UAT Start&lt;/font&gt;" style="shape=callout;whiteSpace=wrap;html=1;perimeter=calloutPerimeter;fontSize=16;position2=1;rotation=0;base=11;size=30;position=0.61;snapToPoint=0;rounded=0;shadow=0;sketch=1;direction=west;arcSize=15;" parent="84KTpsVSsy3dv5a97gq0-1" vertex="1">
          <mxGeometry x="1298.63" y="1257" width="90" height="50" as="geometry" />
        </mxCell>
        <mxCell id="Yfrm37MvhDvbOV5HHXXn-23" value="&lt;font style=&quot;font-size: 14px&quot;&gt;UAT Complete&lt;/font&gt;" style="shape=callout;whiteSpace=wrap;html=1;perimeter=calloutPerimeter;fontSize=16;position2=0.94;rotation=0;base=11;size=50;position=0.56;snapToPoint=0;rounded=0;shadow=0;sketch=1;direction=east;arcSize=15;" parent="84KTpsVSsy3dv5a97gq0-1" vertex="1">
          <mxGeometry x="1322.13" y="1072.5" width="109" height="75" as="geometry" />
        </mxCell>
        <mxCell id="Yfrm37MvhDvbOV5HHXXn-24" style="rounded=0;sketch=1;orthogonalLoop=1;jettySize=auto;html=1;entryX=0.5;entryY=1;entryDx=0;entryDy=0;entryPerimeter=0;fontSize=15;endArrow=none;endFill=0;dashed=1;" parent="84KTpsVSsy3dv5a97gq0-1" source="Yfrm37MvhDvbOV5HHXXn-25" target="Yfrm37MvhDvbOV5HHXXn-12" edge="1">
          <mxGeometry relative="1" as="geometry" />
        </mxCell>
        <mxCell id="Yfrm37MvhDvbOV5HHXXn-25" value="&lt;span style=&quot;font-size: 16px&quot;&gt;feature/Dev20220117_LoanPayments&lt;/span&gt;" style="text;html=1;strokeColor=#82b366;fillColor=#d5e8d4;align=center;verticalAlign=middle;whiteSpace=wrap;overflow=hidden;rounded=0;shadow=0;sketch=1;fontSize=15;" parent="84KTpsVSsy3dv5a97gq0-1" vertex="1">
          <mxGeometry x="1032.13" y="1340" width="290" height="20" as="geometry" />
        </mxCell>
        <mxCell id="Yfrm37MvhDvbOV5HHXXn-27" value="&lt;span style=&quot;text-align: center ; background-color: rgb(248 , 249 , 250)&quot;&gt;UAT20220117_LoanPayments&lt;/span&gt;" style="shape=image;html=1;verticalAlign=middle;verticalLabelPosition=middle;labelBackgroundColor=#ffffff;imageAspect=0;aspect=fixed;image=https://cdn1.iconfinder.com/data/icons/32-soft-media-icons--Vol-2/33/tag.png;rounded=0;shadow=0;sketch=1;fontSize=13;fillColor=none;gradientColor=none;direction=east;rotation=0;textDirection=ltr;labelPosition=right;align=left;" parent="84KTpsVSsy3dv5a97gq0-1" vertex="1">
          <mxGeometry x="1201.63" y="1167" width="20" height="20" as="geometry" />
        </mxCell>
        <mxCell id="Yfrm37MvhDvbOV5HHXXn-28" value="&lt;span style=&quot;text-align: center ; background-color: rgb(248 , 249 , 250)&quot;&gt;Rel20220117_LoanPayments&lt;/span&gt;" style="shape=image;html=1;verticalAlign=middle;verticalLabelPosition=middle;labelBackgroundColor=#ffffff;imageAspect=0;aspect=fixed;image=https://cdn1.iconfinder.com/data/icons/32-soft-media-icons--Vol-2/33/tag.png;rounded=0;shadow=0;sketch=1;fontSize=13;fillColor=none;gradientColor=none;direction=east;rotation=0;textDirection=ltr;labelPosition=right;align=left;" parent="84KTpsVSsy3dv5a97gq0-1" vertex="1">
          <mxGeometry x="1429.63" y="1167" width="20" height="20" as="geometry" />
        </mxCell>
        <mxCell id="Yfrm37MvhDvbOV5HHXXn-29" value="&lt;span style=&quot;font-size: 16px&quot;&gt;release/Rel20220117_LoanPayments&lt;/span&gt;" style="text;html=1;strokeColor=#82b366;fillColor=#97D077;align=center;verticalAlign=middle;whiteSpace=wrap;overflow=hidden;rounded=0;shadow=0;sketch=1;fontSize=15;" parent="84KTpsVSsy3dv5a97gq0-1" vertex="1">
          <mxGeometry x="1237.38" y="965" width="290" height="20" as="geometry" />
        </mxCell>
        <mxCell id="Yfrm37MvhDvbOV5HHXXn-30" style="rounded=0;sketch=1;orthogonalLoop=1;jettySize=auto;html=1;fontSize=15;endArrow=none;endFill=0;dashed=1;exitX=0.145;exitY=0.145;exitDx=0;exitDy=0;exitPerimeter=0;" parent="84KTpsVSsy3dv5a97gq0-1" source="Yfrm37MvhDvbOV5HHXXn-17" target="Yfrm37MvhDvbOV5HHXXn-29" edge="1">
          <mxGeometry relative="1" as="geometry">
            <mxPoint x="1492.63" y="1050" as="sourcePoint" />
            <mxPoint x="1512.88" y="1005" as="targetPoint" />
          </mxGeometry>
        </mxCell>
        <mxCell id="ULyehuTYYwsjFRRzDHKz-42" value="" style="verticalLabelPosition=bottom;verticalAlign=top;html=1;strokeWidth=4;shape=mxgraph.flowchart.on-page_reference;plain-blue;gradientColor=#EA6B66;strokeColor=#B85450;fillColor=#F8CECC;" parent="84KTpsVSsy3dv5a97gq0-1" vertex="1">
          <mxGeometry x="1629.2500000000002" y="1095" width="30" height="30" as="geometry" />
        </mxCell>
        <mxCell id="ULyehuTYYwsjFRRzDHKz-43" style="rounded=0;orthogonalLoop=1;jettySize=auto;html=1;exitX=0.855;exitY=0.855;exitDx=0;exitDy=0;exitPerimeter=0;entryX=0;entryY=0.5;entryDx=0;entryDy=0;entryPerimeter=0;endArrow=classicThin;endFill=1;strokeWidth=4;fontFamily=Courier New;fontColor=#009900;edgeStyle=orthogonalEdgeStyle;curved=1;" parent="84KTpsVSsy3dv5a97gq0-1" source="Yfrm37MvhDvbOV5HHXXn-17" target="ULyehuTYYwsjFRRzDHKz-42" edge="1">
          <mxGeometry relative="1" as="geometry">
            <mxPoint x="1575.2500000000002" y="1045.65" as="sourcePoint" />
            <mxPoint x="1643.5999999999997" y="1129" as="targetPoint" />
            <Array as="points">
              <mxPoint x="1523.25" y="1110" />
            </Array>
          </mxGeometry>
        </mxCell>
        <mxCell id="ULyehuTYYwsjFRRzDHKz-44" style="edgeStyle=orthogonalEdgeStyle;curved=1;rounded=0;orthogonalLoop=1;jettySize=auto;html=1;entryX=0.5;entryY=0;entryDx=0;entryDy=0;entryPerimeter=0;endArrow=none;endFill=0;strokeWidth=4;fontFamily=Courier New;fontColor=#009900;startArrow=classic;startFill=1;exitX=1;exitY=0.5;exitDx=0;exitDy=0;exitPerimeter=0;" parent="84KTpsVSsy3dv5a97gq0-1" source="Yfrm37MvhDvbOV5HHXXn-17" target="ULyehuTYYwsjFRRzDHKz-42" edge="1">
          <mxGeometry relative="1" as="geometry">
            <mxPoint x="1579.6000000000001" y="1035" as="sourcePoint" />
            <mxPoint x="1787.8499999999997" y="1069" as="targetPoint" />
          </mxGeometry>
        </mxCell>
        <mxCell id="ULyehuTYYwsjFRRzDHKz-45" style="edgeStyle=orthogonalEdgeStyle;curved=1;rounded=0;orthogonalLoop=1;jettySize=auto;html=1;exitX=1;exitY=0.5;exitDx=0;exitDy=0;exitPerimeter=0;endArrow=classicThin;endFill=1;strokeWidth=4;fontFamily=Courier New;fontColor=#009900;fillColor=#f8cecc;strokeColor=#b85450;" parent="84KTpsVSsy3dv5a97gq0-1" source="ULyehuTYYwsjFRRzDHKz-42" edge="1">
          <mxGeometry relative="1" as="geometry">
            <mxPoint x="1635.2500000000002" y="1065" as="sourcePoint" />
            <mxPoint x="1745.25" y="1215" as="targetPoint" />
          </mxGeometry>
        </mxCell>
        <mxCell id="ULyehuTYYwsjFRRzDHKz-51" value="Hotfix Sigoff" style="edgeLabel;html=1;align=center;verticalAlign=middle;resizable=0;points=[];labelBorderColor=default;fontSize=12;" parent="ULyehuTYYwsjFRRzDHKz-45" vertex="1" connectable="0">
          <mxGeometry x="0.1937" y="-14" relative="1" as="geometry">
            <mxPoint as="offset" />
          </mxGeometry>
        </mxCell>
        <mxCell id="ULyehuTYYwsjFRRzDHKz-46" value="&lt;span style=&quot;font-size: 16px&quot;&gt;hotfix/Rel20220117_LoanPayments&lt;/span&gt;" style="text;html=1;strokeColor=#b85450;fillColor=#f8cecc;align=center;verticalAlign=middle;whiteSpace=wrap;overflow=hidden;rounded=0;shadow=0;sketch=1;fontSize=15;" parent="84KTpsVSsy3dv5a97gq0-1" vertex="1">
          <mxGeometry x="1659.25" y="1015" width="290" height="20" as="geometry" />
        </mxCell>
        <mxCell id="ULyehuTYYwsjFRRzDHKz-47" style="rounded=0;sketch=1;orthogonalLoop=1;jettySize=auto;html=1;fontSize=15;endArrow=none;endFill=0;dashed=1;exitX=0.855;exitY=0.145;exitDx=0;exitDy=0;exitPerimeter=0;entryX=0.5;entryY=1;entryDx=0;entryDy=0;" parent="84KTpsVSsy3dv5a97gq0-1" source="ULyehuTYYwsjFRRzDHKz-42" target="ULyehuTYYwsjFRRzDHKz-46" edge="1">
          <mxGeometry relative="1" as="geometry">
            <mxPoint x="1821.92" y="1025" as="sourcePoint" />
            <mxPoint x="1735.2533333333336" y="1005" as="targetPoint" />
          </mxGeometry>
        </mxCell>
        <mxCell id="ULyehuTYYwsjFRRzDHKz-48" value="&lt;span style=&quot;font-size: 14px&quot;&gt;Hotfix&lt;/span&gt;" style="shape=callout;whiteSpace=wrap;html=1;perimeter=calloutPerimeter;fontSize=16;position2=0.45;rotation=0;base=10;size=30;position=0.5;snapToPoint=0;rounded=0;shadow=0;sketch=1;direction=west;arcSize=15;" parent="84KTpsVSsy3dv5a97gq0-1" vertex="1">
          <mxGeometry x="1505.72" y="1085" width="60" height="50" as="geometry" />
        </mxCell>
        <mxCell id="ULyehuTYYwsjFRRzDHKz-49" value="&lt;font style=&quot;font-size: 14px&quot;&gt;Hotfix Complete&lt;/font&gt;" style="shape=callout;whiteSpace=wrap;html=1;perimeter=calloutPerimeter;fontSize=16;position2=0.36;rotation=0;base=11;size=50;position=0.56;snapToPoint=0;rounded=0;shadow=0;sketch=1;direction=east;arcSize=15;" parent="84KTpsVSsy3dv5a97gq0-1" vertex="1">
          <mxGeometry x="1550.25" y="950" width="109" height="75" as="geometry" />
        </mxCell>
        <mxCell id="ULyehuTYYwsjFRRzDHKz-52" value="&lt;font style=&quot;font-size: 17px&quot;&gt;hotfix&lt;/font&gt;" style="text;html=1;strokeColor=none;fillColor=none;align=center;verticalAlign=middle;whiteSpace=wrap;overflow=hidden;fontSize=14;fontStyle=1;fontFamily=Courier New;" parent="84KTpsVSsy3dv5a97gq0-1" vertex="1">
          <mxGeometry x="853.63" y="1101" width="81.62" height="20" as="geometry" />
        </mxCell>
        <mxCell id="ULyehuTYYwsjFRRzDHKz-53" value="" style="edgeStyle=orthogonalEdgeStyle;rounded=0;html=1;jettySize=auto;orthogonalLoop=1;plain-blue;endArrow=none;endFill=0;strokeWidth=4;strokeColor=#000000;sketch=1;" parent="84KTpsVSsy3dv5a97gq0-1" source="ULyehuTYYwsjFRRzDHKz-55" target="ULyehuTYYwsjFRRzDHKz-57" edge="1">
          <mxGeometry x="1103.3200000000002" y="1722" as="geometry" />
        </mxCell>
        <mxCell id="ULyehuTYYwsjFRRzDHKz-54" style="edgeStyle=orthogonalEdgeStyle;curved=1;rounded=0;html=1;exitX=1;exitY=0.5;exitPerimeter=0;entryX=0;entryY=0.5;entryPerimeter=0;endArrow=none;endFill=0;jettySize=auto;orthogonalLoop=1;strokeWidth=4;fontSize=15;sketch=1;" parent="84KTpsVSsy3dv5a97gq0-1" source="ULyehuTYYwsjFRRzDHKz-55" target="ULyehuTYYwsjFRRzDHKz-61" edge="1">
          <mxGeometry relative="1" as="geometry" />
        </mxCell>
        <mxCell id="ULyehuTYYwsjFRRzDHKz-55" value="" style="verticalLabelPosition=bottom;verticalAlign=top;html=1;strokeWidth=4;shape=mxgraph.flowchart.on-page_reference;plain-blue;gradientColor=none;fillColor=#B5E3Fe;strokeColor=#000000;" parent="84KTpsVSsy3dv5a97gq0-1" vertex="1">
          <mxGeometry x="1073.3200000000002" y="1707" width="30" height="30" as="geometry" />
        </mxCell>
        <mxCell id="ULyehuTYYwsjFRRzDHKz-56" value="" style="edgeStyle=orthogonalEdgeStyle;curved=1;rounded=0;orthogonalLoop=1;jettySize=auto;html=1;endArrow=none;endFill=0;strokeWidth=4;fontFamily=Courier New;fontSize=16;" parent="84KTpsVSsy3dv5a97gq0-1" source="ULyehuTYYwsjFRRzDHKz-57" edge="1">
          <mxGeometry relative="1" as="geometry">
            <mxPoint x="1392.5700000000002" y="1722" as="targetPoint" />
          </mxGeometry>
        </mxCell>
        <mxCell id="ULyehuTYYwsjFRRzDHKz-57" value="" style="verticalLabelPosition=bottom;verticalAlign=top;html=1;strokeWidth=4;shape=mxgraph.flowchart.on-page_reference;plain-blue;gradientColor=none;strokeColor=#000000;" parent="84KTpsVSsy3dv5a97gq0-1" vertex="1">
          <mxGeometry x="1311.5700000000002" y="1707" width="30" height="30" as="geometry" />
        </mxCell>
        <mxCell id="ULyehuTYYwsjFRRzDHKz-58" value="" style="edgeStyle=orthogonalEdgeStyle;curved=1;rounded=0;orthogonalLoop=1;jettySize=auto;html=1;endArrow=openThin;endFill=0;strokeWidth=4;fontFamily=Courier New;fontSize=16;startArrow=none;startFill=0;sketch=1;" parent="84KTpsVSsy3dv5a97gq0-1" edge="1">
          <mxGeometry relative="1" as="geometry">
            <mxPoint x="1341.5700000000002" y="1721.5" as="sourcePoint" />
            <mxPoint x="2108.19" y="1722" as="targetPoint" />
            <Array as="points">
              <mxPoint x="1478.8200000000002" y="1722" />
              <mxPoint x="1478.8200000000002" y="1722" />
            </Array>
          </mxGeometry>
        </mxCell>
        <mxCell id="ULyehuTYYwsjFRRzDHKz-59" value="" style="edgeStyle=orthogonalEdgeStyle;rounded=0;html=1;jettySize=auto;orthogonalLoop=1;strokeWidth=4;endArrow=none;endFill=0;sketch=1;" parent="84KTpsVSsy3dv5a97gq0-1" target="ULyehuTYYwsjFRRzDHKz-55" edge="1">
          <mxGeometry x="1003.3200000000002" y="1722" as="geometry">
            <mxPoint x="958.8200000000002" y="1722" as="sourcePoint" />
          </mxGeometry>
        </mxCell>
        <mxCell id="ULyehuTYYwsjFRRzDHKz-60" style="rounded=0;html=1;exitX=1;exitY=0.5;exitPerimeter=0;entryX=0;entryY=0.5;entryPerimeter=0;endArrow=none;endFill=0;jettySize=auto;orthogonalLoop=1;strokeWidth=4;fontSize=15;sketch=1;" parent="84KTpsVSsy3dv5a97gq0-1" source="ULyehuTYYwsjFRRzDHKz-61" edge="1">
          <mxGeometry relative="1" as="geometry">
            <mxPoint x="1218.3200000000002" y="1802" as="targetPoint" />
          </mxGeometry>
        </mxCell>
        <mxCell id="ULyehuTYYwsjFRRzDHKz-61" value="" style="verticalLabelPosition=bottom;verticalAlign=top;html=1;strokeWidth=4;shape=mxgraph.flowchart.on-page_reference;plain-purple;gradientColor=none;strokeColor=#000000;fillColor=#D5E8D4;" parent="84KTpsVSsy3dv5a97gq0-1" vertex="1">
          <mxGeometry x="1146.3200000000002" y="1787" width="30" height="30" as="geometry" />
        </mxCell>
        <mxCell id="ULyehuTYYwsjFRRzDHKz-62" style="edgeStyle=orthogonalEdgeStyle;curved=1;rounded=0;html=1;entryX=0;entryY=0.5;entryPerimeter=0;endArrow=none;endFill=0;jettySize=auto;orthogonalLoop=1;strokeWidth=4;fontSize=15;sketch=1;" parent="84KTpsVSsy3dv5a97gq0-1" target="ULyehuTYYwsjFRRzDHKz-57" edge="1">
          <mxGeometry relative="1" as="geometry">
            <mxPoint x="1250.8200000000002" y="1802" as="sourcePoint" />
          </mxGeometry>
        </mxCell>
        <mxCell id="ULyehuTYYwsjFRRzDHKz-63" value="&lt;b&gt;M&lt;/b&gt;" style="whiteSpace=wrap;html=1;verticalAlign=top;fillColor=#D5E8D4;strokeColor=#000000;strokeWidth=4;gradientColor=none;" parent="84KTpsVSsy3dv5a97gq0-1" vertex="1">
          <mxGeometry x="1220.3200000000002" y="1787" width="30" height="30" as="geometry" />
        </mxCell>
        <mxCell id="ULyehuTYYwsjFRRzDHKz-64" value="&lt;div&gt;&lt;b&gt;&lt;font style=&quot;font-size: 13px&quot;&gt;M&lt;/font&gt;&lt;/b&gt;&lt;/div&gt;" style="whiteSpace=wrap;html=1;verticalAlign=top;fillColor=#DAE8FC;strokeColor=#000000;strokeWidth=4;gradientColor=none;align=center;" parent="84KTpsVSsy3dv5a97gq0-1" vertex="1">
          <mxGeometry x="1392.5700000000002" y="1707" width="30" height="30" as="geometry" />
        </mxCell>
        <mxCell id="ULyehuTYYwsjFRRzDHKz-65" value="" style="edgeStyle=orthogonalEdgeStyle;curved=1;rounded=0;orthogonalLoop=1;jettySize=auto;html=1;endArrow=none;endFill=0;strokeWidth=4;fontFamily=Courier New;fontSize=16;exitX=0.5;exitY=0;exitDx=0;exitDy=0;sketch=1;entryX=0.5;entryY=1;entryDx=0;entryDy=0;entryPerimeter=0;" parent="84KTpsVSsy3dv5a97gq0-1" source="ULyehuTYYwsjFRRzDHKz-64" target="ULyehuTYYwsjFRRzDHKz-66" edge="1">
          <mxGeometry relative="1" as="geometry">
            <mxPoint x="1432.5700000000002" y="1675" as="sourcePoint" />
            <mxPoint x="1470.8200000000002" y="1595" as="targetPoint" />
          </mxGeometry>
        </mxCell>
        <mxCell id="ULyehuTYYwsjFRRzDHKz-66" value="" style="verticalLabelPosition=bottom;verticalAlign=top;html=1;strokeWidth=4;shape=mxgraph.flowchart.on-page_reference;strokeColor=#2D7600;fillColor=#60a917;fontColor=#ffffff;" parent="84KTpsVSsy3dv5a97gq0-1" vertex="1">
          <mxGeometry x="1480.3200000000002" y="1515" width="30" height="30" as="geometry" />
        </mxCell>
        <mxCell id="ULyehuTYYwsjFRRzDHKz-67" value="&lt;font style=&quot;font-size: 17px&quot;&gt;master&lt;/font&gt;" style="text;html=1;strokeColor=none;fillColor=none;align=center;verticalAlign=middle;whiteSpace=wrap;overflow=hidden;fontSize=14;fontStyle=1;fontFamily=Courier New;" parent="84KTpsVSsy3dv5a97gq0-1" vertex="1">
          <mxGeometry x="836.57" y="1707" width="70" height="20" as="geometry" />
        </mxCell>
        <mxCell id="ULyehuTYYwsjFRRzDHKz-68" value="&lt;font style=&quot;font-size: 17px&quot;&gt;development&lt;/font&gt;" style="text;html=1;strokeColor=none;fillColor=none;align=center;verticalAlign=middle;whiteSpace=wrap;overflow=hidden;fontSize=14;fontStyle=1;fontFamily=Courier New;" parent="84KTpsVSsy3dv5a97gq0-1" vertex="1">
          <mxGeometry x="836.57" y="1790" width="121.62" height="20" as="geometry" />
        </mxCell>
        <mxCell id="ULyehuTYYwsjFRRzDHKz-69" value="&lt;font style=&quot;font-size: 17px&quot;&gt;release&lt;/font&gt;" style="text;html=1;strokeColor=none;fillColor=none;align=center;verticalAlign=middle;whiteSpace=wrap;overflow=hidden;fontSize=14;fontStyle=1;fontFamily=Courier New;" parent="84KTpsVSsy3dv5a97gq0-1" vertex="1">
          <mxGeometry x="836.57" y="1518" width="81.62" height="20" as="geometry" />
        </mxCell>
        <mxCell id="ULyehuTYYwsjFRRzDHKz-70" value="&lt;font style=&quot;font-size: 15px&quot;&gt;New development start&lt;/font&gt;" style="shape=callout;whiteSpace=wrap;html=1;perimeter=calloutPerimeter;fontSize=16;position2=0.1;rotation=0;base=13;size=40;position=0.26;snapToPoint=0;rounded=0;shadow=0;sketch=1;direction=west;" parent="84KTpsVSsy3dv5a97gq0-1" vertex="1">
          <mxGeometry x="977.44" y="1767" width="163" height="60" as="geometry" />
        </mxCell>
        <mxCell id="ULyehuTYYwsjFRRzDHKz-71" value="&lt;font style=&quot;font-size: 14px&quot;&gt;UAT Start&lt;/font&gt;" style="shape=callout;whiteSpace=wrap;html=1;perimeter=calloutPerimeter;fontSize=16;position2=1;rotation=0;base=11;size=30;position=0.61;snapToPoint=0;rounded=0;shadow=0;sketch=1;direction=west;arcSize=15;" parent="84KTpsVSsy3dv5a97gq0-1" vertex="1">
          <mxGeometry x="1281.5700000000002" y="1767" width="90" height="50" as="geometry" />
        </mxCell>
        <mxCell id="ULyehuTYYwsjFRRzDHKz-72" value="&lt;font style=&quot;font-size: 14px&quot;&gt;UAT Complete&lt;/font&gt;" style="shape=callout;whiteSpace=wrap;html=1;perimeter=calloutPerimeter;fontSize=16;position2=0.94;rotation=0;base=11;size=50;position=0.56;snapToPoint=0;rounded=0;shadow=0;sketch=1;direction=east;arcSize=15;" parent="84KTpsVSsy3dv5a97gq0-1" vertex="1">
          <mxGeometry x="1305.0700000000002" y="1582.5" width="109" height="75" as="geometry" />
        </mxCell>
        <mxCell id="ULyehuTYYwsjFRRzDHKz-73" style="rounded=0;sketch=1;orthogonalLoop=1;jettySize=auto;html=1;fontSize=15;endArrow=none;endFill=0;dashed=1;entryX=0.5;entryY=1;entryDx=0;entryDy=0;entryPerimeter=0;" parent="84KTpsVSsy3dv5a97gq0-1" source="ULyehuTYYwsjFRRzDHKz-74" target="ULyehuTYYwsjFRRzDHKz-61" edge="1">
          <mxGeometry relative="1" as="geometry">
            <mxPoint x="1150" y="1820" as="targetPoint" />
          </mxGeometry>
        </mxCell>
        <mxCell id="ULyehuTYYwsjFRRzDHKz-74" value="&lt;span style=&quot;font-size: 16px&quot;&gt;feature/Dev20220117_LoanPayments&lt;/span&gt;" style="text;html=1;strokeColor=#82b366;fillColor=#d5e8d4;align=center;verticalAlign=middle;whiteSpace=wrap;overflow=hidden;rounded=0;shadow=0;sketch=1;fontSize=15;" parent="84KTpsVSsy3dv5a97gq0-1" vertex="1">
          <mxGeometry x="1015.07" y="1862" width="290" height="20" as="geometry" />
        </mxCell>
        <mxCell id="ULyehuTYYwsjFRRzDHKz-76" value="&lt;span style=&quot;text-align: center ; background-color: rgb(248 , 249 , 250)&quot;&gt;UAT20220117_LoanPayments&lt;/span&gt;" style="shape=image;html=1;verticalAlign=middle;verticalLabelPosition=middle;labelBackgroundColor=#ffffff;imageAspect=0;aspect=fixed;image=https://cdn1.iconfinder.com/data/icons/32-soft-media-icons--Vol-2/33/tag.png;rounded=0;shadow=0;sketch=1;fontSize=13;fillColor=none;gradientColor=none;direction=east;rotation=0;textDirection=ltr;labelPosition=right;align=left;" parent="84KTpsVSsy3dv5a97gq0-1" vertex="1">
          <mxGeometry x="1267.38" y="1747" width="20" height="20" as="geometry" />
        </mxCell>
        <mxCell id="ULyehuTYYwsjFRRzDHKz-77" value="&lt;span style=&quot;text-align: center ; background-color: rgb(248 , 249 , 250)&quot;&gt;Rel20220117_LoanPayments&lt;/span&gt;" style="shape=image;html=1;verticalAlign=middle;verticalLabelPosition=middle;labelBackgroundColor=#ffffff;imageAspect=0;aspect=fixed;image=https://cdn1.iconfinder.com/data/icons/32-soft-media-icons--Vol-2/33/tag.png;rounded=0;shadow=0;sketch=1;fontSize=13;fillColor=none;gradientColor=none;direction=east;rotation=0;textDirection=ltr;labelPosition=right;align=left;" parent="84KTpsVSsy3dv5a97gq0-1" vertex="1">
          <mxGeometry x="1399.3799999999999" y="1670" width="20" height="20" as="geometry" />
        </mxCell>
        <mxCell id="ULyehuTYYwsjFRRzDHKz-78" value="&lt;span style=&quot;font-size: 16px&quot;&gt;release/Rel20220117_LoanPayments&lt;/span&gt;" style="text;html=1;strokeColor=#82b366;fillColor=#97D077;align=center;verticalAlign=middle;whiteSpace=wrap;overflow=hidden;rounded=0;shadow=0;sketch=1;fontSize=15;" parent="84KTpsVSsy3dv5a97gq0-1" vertex="1">
          <mxGeometry x="1231.63" y="1460" width="290" height="20" as="geometry" />
        </mxCell>
        <mxCell id="ULyehuTYYwsjFRRzDHKz-79" style="rounded=0;sketch=1;orthogonalLoop=1;jettySize=auto;html=1;fontSize=15;endArrow=none;endFill=0;dashed=1;" parent="84KTpsVSsy3dv5a97gq0-1" target="ULyehuTYYwsjFRRzDHKz-78" edge="1">
          <mxGeometry relative="1" as="geometry">
            <mxPoint x="1480" y="1520" as="sourcePoint" />
            <mxPoint x="1495.8200000000002" y="1515" as="targetPoint" />
          </mxGeometry>
        </mxCell>
        <mxCell id="ULyehuTYYwsjFRRzDHKz-80" value="" style="verticalLabelPosition=bottom;verticalAlign=top;html=1;strokeWidth=4;shape=mxgraph.flowchart.on-page_reference;plain-blue;gradientColor=#EA6B66;strokeColor=#B85450;fillColor=#F8CECC;" parent="84KTpsVSsy3dv5a97gq0-1" vertex="1">
          <mxGeometry x="1612.1900000000003" y="1605" width="30" height="30" as="geometry" />
        </mxCell>
        <mxCell id="ULyehuTYYwsjFRRzDHKz-81" style="rounded=0;orthogonalLoop=1;jettySize=auto;html=1;exitX=0.855;exitY=0.855;exitDx=0;exitDy=0;exitPerimeter=0;entryX=0;entryY=0.5;entryDx=0;entryDy=0;entryPerimeter=0;endArrow=classicThin;endFill=1;strokeWidth=4;fontFamily=Courier New;fontColor=#009900;edgeStyle=orthogonalEdgeStyle;curved=1;" parent="84KTpsVSsy3dv5a97gq0-1" source="ULyehuTYYwsjFRRzDHKz-66" target="ULyehuTYYwsjFRRzDHKz-80" edge="1">
          <mxGeometry relative="1" as="geometry">
            <mxPoint x="1558.1900000000003" y="1555.65" as="sourcePoint" />
            <mxPoint x="1626.5399999999997" y="1639" as="targetPoint" />
            <Array as="points">
              <mxPoint x="1506.19" y="1620" />
            </Array>
          </mxGeometry>
        </mxCell>
        <mxCell id="ULyehuTYYwsjFRRzDHKz-82" style="edgeStyle=orthogonalEdgeStyle;curved=1;rounded=0;orthogonalLoop=1;jettySize=auto;html=1;entryX=0.5;entryY=0;entryDx=0;entryDy=0;entryPerimeter=0;endArrow=none;endFill=0;strokeWidth=4;fontFamily=Courier New;fontColor=#009900;startArrow=classic;startFill=1;exitX=1;exitY=0.5;exitDx=0;exitDy=0;exitPerimeter=0;" parent="84KTpsVSsy3dv5a97gq0-1" source="ULyehuTYYwsjFRRzDHKz-66" target="ULyehuTYYwsjFRRzDHKz-80" edge="1">
          <mxGeometry relative="1" as="geometry">
            <mxPoint x="1562.5400000000002" y="1545" as="sourcePoint" />
            <mxPoint x="1770.7899999999997" y="1579" as="targetPoint" />
          </mxGeometry>
        </mxCell>
        <mxCell id="ULyehuTYYwsjFRRzDHKz-83" style="edgeStyle=orthogonalEdgeStyle;curved=1;rounded=0;orthogonalLoop=1;jettySize=auto;html=1;exitX=1;exitY=0.5;exitDx=0;exitDy=0;exitPerimeter=0;endArrow=classicThin;endFill=1;strokeWidth=4;fontFamily=Courier New;fontColor=#009900;fillColor=#f8cecc;strokeColor=#b85450;" parent="84KTpsVSsy3dv5a97gq0-1" source="ULyehuTYYwsjFRRzDHKz-80" edge="1">
          <mxGeometry relative="1" as="geometry">
            <mxPoint x="1618.1900000000003" y="1575" as="sourcePoint" />
            <mxPoint x="1728.19" y="1725" as="targetPoint" />
          </mxGeometry>
        </mxCell>
        <mxCell id="ULyehuTYYwsjFRRzDHKz-84" value="Hotfix Sigoff" style="edgeLabel;html=1;align=center;verticalAlign=middle;resizable=0;points=[];labelBorderColor=default;fontSize=12;" parent="ULyehuTYYwsjFRRzDHKz-83" vertex="1" connectable="0">
          <mxGeometry x="0.1937" y="-14" relative="1" as="geometry">
            <mxPoint as="offset" />
          </mxGeometry>
        </mxCell>
        <mxCell id="ULyehuTYYwsjFRRzDHKz-85" value="&lt;span style=&quot;font-size: 16px&quot;&gt;hotfix/Rel20220117_LoanPayments&lt;/span&gt;" style="text;html=1;strokeColor=#b85450;fillColor=#f8cecc;align=center;verticalAlign=middle;whiteSpace=wrap;overflow=hidden;rounded=0;shadow=0;sketch=1;fontSize=15;" parent="84KTpsVSsy3dv5a97gq0-1" vertex="1">
          <mxGeometry x="1617.44" y="1525" width="290" height="20" as="geometry" />
        </mxCell>
        <mxCell id="ULyehuTYYwsjFRRzDHKz-86" style="rounded=0;sketch=1;orthogonalLoop=1;jettySize=auto;html=1;fontSize=15;endArrow=none;endFill=0;dashed=1;entryX=0.5;entryY=1;entryDx=0;entryDy=0;exitX=0.855;exitY=0.145;exitDx=0;exitDy=0;exitPerimeter=0;" parent="84KTpsVSsy3dv5a97gq0-1" source="ULyehuTYYwsjFRRzDHKz-80" target="ULyehuTYYwsjFRRzDHKz-85" edge="1">
          <mxGeometry relative="1" as="geometry">
            <mxPoint x="1627" y="1610" as="sourcePoint" />
            <mxPoint x="1718.1933333333336" y="1515" as="targetPoint" />
          </mxGeometry>
        </mxCell>
        <mxCell id="ULyehuTYYwsjFRRzDHKz-87" value="&lt;span style=&quot;font-size: 14px&quot;&gt;Hotfix&lt;/span&gt;" style="shape=callout;whiteSpace=wrap;html=1;perimeter=calloutPerimeter;fontSize=16;position2=0.45;rotation=0;base=10;size=30;position=0.5;snapToPoint=0;rounded=0;shadow=0;sketch=1;direction=west;arcSize=15;" parent="84KTpsVSsy3dv5a97gq0-1" vertex="1">
          <mxGeometry x="1488.66" y="1595" width="60" height="50" as="geometry" />
        </mxCell>
        <mxCell id="ULyehuTYYwsjFRRzDHKz-88" value="&lt;font style=&quot;font-size: 14px&quot;&gt;Hotfix Complete&lt;/font&gt;" style="shape=callout;whiteSpace=wrap;html=1;perimeter=calloutPerimeter;fontSize=16;position2=0.36;rotation=0;base=11;size=50;position=0.56;snapToPoint=0;rounded=0;shadow=0;sketch=1;direction=east;arcSize=15;" parent="84KTpsVSsy3dv5a97gq0-1" vertex="1">
          <mxGeometry x="1533.19" y="1460" width="109" height="75" as="geometry" />
        </mxCell>
        <mxCell id="ULyehuTYYwsjFRRzDHKz-89" value="&lt;font style=&quot;font-size: 17px&quot;&gt;hotfix&lt;/font&gt;" style="text;html=1;strokeColor=none;fillColor=none;align=center;verticalAlign=middle;whiteSpace=wrap;overflow=hidden;fontSize=14;fontStyle=1;fontFamily=Courier New;" parent="84KTpsVSsy3dv5a97gq0-1" vertex="1">
          <mxGeometry x="836.57" y="1611" width="81.62" height="20" as="geometry" />
        </mxCell>
        <mxCell id="ULyehuTYYwsjFRRzDHKz-90" value="&lt;span style=&quot;font-size: 16px&quot;&gt;feature/Dev20220117_LoanPayments&lt;/span&gt;" style="text;html=1;strokeColor=#82b366;fillColor=#d5e8d4;align=center;verticalAlign=middle;whiteSpace=wrap;overflow=hidden;rounded=0;shadow=0;sketch=1;fontSize=15;" parent="84KTpsVSsy3dv5a97gq0-1" vertex="1">
          <mxGeometry x="1075.1299999999999" y="230" width="290" height="20" as="geometry" />
        </mxCell>
        <mxCell id="ULyehuTYYwsjFRRzDHKz-97" style="edgeStyle=orthogonalEdgeStyle;curved=1;rounded=0;html=1;exitX=1;exitY=0.5;exitPerimeter=0;entryX=0;entryY=0.5;entryPerimeter=0;endArrow=none;endFill=0;jettySize=auto;orthogonalLoop=1;strokeWidth=4;fontSize=15;sketch=1;" parent="84KTpsVSsy3dv5a97gq0-1" source="ULyehuTYYwsjFRRzDHKz-98" target="ULyehuTYYwsjFRRzDHKz-102" edge="1">
          <mxGeometry relative="1" as="geometry" />
        </mxCell>
        <mxCell id="ULyehuTYYwsjFRRzDHKz-98" value="" style="verticalLabelPosition=bottom;verticalAlign=top;html=1;strokeWidth=4;shape=mxgraph.flowchart.on-page_reference;plain-blue;gradientColor=none;fillColor=#B5E3Fe;strokeColor=#000000;" parent="84KTpsVSsy3dv5a97gq0-1" vertex="1">
          <mxGeometry x="1550.3200000000002" y="1707" width="30" height="30" as="geometry" />
        </mxCell>
        <mxCell id="ULyehuTYYwsjFRRzDHKz-99" value="" style="verticalLabelPosition=bottom;verticalAlign=top;html=1;strokeWidth=4;shape=mxgraph.flowchart.on-page_reference;plain-blue;gradientColor=none;strokeColor=#000000;" parent="84KTpsVSsy3dv5a97gq0-1" vertex="1">
          <mxGeometry x="1870.5700000000002" y="1707" width="30" height="30" as="geometry" />
        </mxCell>
        <mxCell id="ULyehuTYYwsjFRRzDHKz-101" style="rounded=0;html=1;exitX=1;exitY=0.5;exitPerimeter=0;entryX=0;entryY=0.5;endArrow=none;endFill=0;jettySize=auto;orthogonalLoop=1;strokeWidth=4;fontSize=15;sketch=1;entryDx=0;entryDy=0;" parent="84KTpsVSsy3dv5a97gq0-1" source="ULyehuTYYwsjFRRzDHKz-102" target="ULyehuTYYwsjFRRzDHKz-113" edge="1">
          <mxGeometry relative="1" as="geometry">
            <mxPoint x="1695.3200000000002" y="1802" as="targetPoint" />
          </mxGeometry>
        </mxCell>
        <mxCell id="ULyehuTYYwsjFRRzDHKz-102" value="" style="verticalLabelPosition=bottom;verticalAlign=top;html=1;strokeWidth=4;shape=mxgraph.flowchart.on-page_reference;plain-purple;gradientColor=none;strokeColor=#000000;fillColor=#D5E8D4;" parent="84KTpsVSsy3dv5a97gq0-1" vertex="1">
          <mxGeometry x="1623.3200000000002" y="1787" width="30" height="30" as="geometry" />
        </mxCell>
        <mxCell id="ULyehuTYYwsjFRRzDHKz-103" style="edgeStyle=orthogonalEdgeStyle;curved=1;rounded=0;html=1;entryX=0;entryY=0.5;entryPerimeter=0;endArrow=none;endFill=0;jettySize=auto;orthogonalLoop=1;strokeWidth=4;fontSize=15;sketch=1;exitX=1;exitY=0.5;exitDx=0;exitDy=0;" parent="84KTpsVSsy3dv5a97gq0-1" source="ULyehuTYYwsjFRRzDHKz-104" target="ULyehuTYYwsjFRRzDHKz-99" edge="1">
          <mxGeometry relative="1" as="geometry">
            <mxPoint x="1727.8200000000002" y="1802" as="sourcePoint" />
          </mxGeometry>
        </mxCell>
        <mxCell id="ULyehuTYYwsjFRRzDHKz-104" value="&lt;b&gt;M&lt;/b&gt;" style="whiteSpace=wrap;html=1;verticalAlign=top;fillColor=#D5E8D4;strokeColor=#000000;strokeWidth=4;gradientColor=none;" parent="84KTpsVSsy3dv5a97gq0-1" vertex="1">
          <mxGeometry x="1784.3200000000002" y="1787" width="30" height="30" as="geometry" />
        </mxCell>
        <mxCell id="ULyehuTYYwsjFRRzDHKz-105" value="&lt;font style=&quot;font-size: 15px&quot;&gt;New development start&lt;/font&gt;" style="shape=callout;whiteSpace=wrap;html=1;perimeter=calloutPerimeter;fontSize=16;position2=0.1;rotation=0;base=13;size=40;position=0.26;snapToPoint=0;rounded=0;shadow=0;sketch=1;direction=west;" parent="84KTpsVSsy3dv5a97gq0-1" vertex="1">
          <mxGeometry x="1454.44" y="1767" width="163" height="60" as="geometry" />
        </mxCell>
        <mxCell id="ULyehuTYYwsjFRRzDHKz-106" style="rounded=0;sketch=1;orthogonalLoop=1;jettySize=auto;html=1;entryX=0.5;entryY=1;entryDx=0;entryDy=0;entryPerimeter=0;fontSize=15;endArrow=none;endFill=0;dashed=1;" parent="84KTpsVSsy3dv5a97gq0-1" source="ULyehuTYYwsjFRRzDHKz-107" target="ULyehuTYYwsjFRRzDHKz-102" edge="1">
          <mxGeometry relative="1" as="geometry" />
        </mxCell>
        <mxCell id="ULyehuTYYwsjFRRzDHKz-107" value="&lt;span style=&quot;font-size: 16px&quot;&gt;feature/Dev20220325_APHReporting&lt;/span&gt;" style="text;html=1;strokeColor=#82b366;fillColor=#d5e8d4;align=center;verticalAlign=middle;whiteSpace=wrap;overflow=hidden;rounded=0;shadow=0;sketch=1;fontSize=15;" parent="84KTpsVSsy3dv5a97gq0-1" vertex="1">
          <mxGeometry x="1493.3200000000002" y="1862" width="290" height="20" as="geometry" />
        </mxCell>
        <mxCell id="ULyehuTYYwsjFRRzDHKz-113" value="&lt;b&gt;M&lt;/b&gt;" style="whiteSpace=wrap;html=1;verticalAlign=top;fillColor=#D5E8D4;strokeColor=#000000;strokeWidth=4;gradientColor=none;" parent="84KTpsVSsy3dv5a97gq0-1" vertex="1">
          <mxGeometry x="1700" y="1787" width="30" height="30" as="geometry" />
        </mxCell>
        <mxCell id="ULyehuTYYwsjFRRzDHKz-116" style="rounded=0;html=1;exitX=1;exitY=0.5;endArrow=none;endFill=0;jettySize=auto;orthogonalLoop=1;strokeWidth=4;fontSize=15;sketch=1;exitDx=0;exitDy=0;entryX=0;entryY=0.5;entryDx=0;entryDy=0;" parent="84KTpsVSsy3dv5a97gq0-1" source="ULyehuTYYwsjFRRzDHKz-113" target="ULyehuTYYwsjFRRzDHKz-104" edge="1">
          <mxGeometry relative="1" as="geometry">
            <mxPoint x="1753" y="1810" as="targetPoint" />
            <mxPoint x="1730.0000000000002" y="1799.5" as="sourcePoint" />
          </mxGeometry>
        </mxCell>
        <mxCell id="ULyehuTYYwsjFRRzDHKz-118" style="edgeStyle=orthogonalEdgeStyle;curved=1;rounded=0;orthogonalLoop=1;jettySize=auto;html=1;exitX=1;exitY=0.5;exitDx=0;exitDy=0;exitPerimeter=0;endArrow=classicThin;endFill=1;strokeWidth=4;fontFamily=Courier New;fontColor=#009900;fillColor=#f8cecc;strokeColor=#b85450;" parent="84KTpsVSsy3dv5a97gq0-1" edge="1">
          <mxGeometry relative="1" as="geometry">
            <mxPoint x="1730.0000000000005" y="1722" as="sourcePoint" />
            <mxPoint x="1760" y="1800" as="targetPoint" />
          </mxGeometry>
        </mxCell>
        <mxCell id="ULyehuTYYwsjFRRzDHKz-121" value="&lt;span style=&quot;text-align: center ; background-color: rgb(248 , 249 , 250)&quot;&gt;UAT20220325_LoanPayments&lt;/span&gt;" style="shape=image;html=1;verticalAlign=middle;verticalLabelPosition=middle;labelBackgroundColor=#ffffff;imageAspect=0;aspect=fixed;image=https://cdn1.iconfinder.com/data/icons/32-soft-media-icons--Vol-2/33/tag.png;rounded=0;shadow=0;sketch=1;fontSize=13;fillColor=none;gradientColor=none;direction=east;rotation=0;textDirection=ltr;labelPosition=right;align=left;" parent="84KTpsVSsy3dv5a97gq0-1" vertex="1">
          <mxGeometry x="1830" y="1754" width="20" height="20" as="geometry" />
        </mxCell>
        <mxCell id="ULyehuTYYwsjFRRzDHKz-122" value="Img2" style="text;html=1;align=center;verticalAlign=middle;resizable=0;points=[];autosize=1;strokeColor=none;fillColor=none;fontSize=16;" parent="84KTpsVSsy3dv5a97gq0-1" vertex="1">
          <mxGeometry x="838.38" y="440" width="50" height="20" as="geometry" />
        </mxCell>
        <mxCell id="ZhSO84Uctp8xHZLFIqNB-0" style="edgeStyle=orthogonalEdgeStyle;curved=1;rounded=0;orthogonalLoop=1;jettySize=auto;html=1;endArrow=classicThin;endFill=1;strokeWidth=4;fontFamily=Courier New;fontColor=#009900;fillColor=#f8cecc;strokeColor=#b85450;" edge="1" parent="84KTpsVSsy3dv5a97gq0-1">
          <mxGeometry relative="1" as="geometry">
            <mxPoint x="1172.25" y="1515" as="sourcePoint" />
            <mxPoint x="1464.8200000000002" y="1722" as="targetPoint" />
          </mxGeometry>
        </mxCell>
        <mxCell id="ZhSO84Uctp8xHZLFIqNB-4" value="" style="verticalLabelPosition=bottom;verticalAlign=top;html=1;strokeWidth=4;shape=mxgraph.flowchart.on-page_reference;strokeColor=#2D7600;fillColor=#60a917;fontColor=#ffffff;" vertex="1" parent="84KTpsVSsy3dv5a97gq0-1">
          <mxGeometry x="1142.2500000000002" y="1495" width="30" height="30" as="geometry" />
        </mxCell>
        <mxCell id="ZhSO84Uctp8xHZLFIqNB-5" value="Bunu da ekle" style="whiteSpace=wrap;html=1;" vertex="1" parent="84KTpsVSsy3dv5a97gq0-1">
          <mxGeometry x="1020" y="1490" width="120" height="30" as="geometry" />
        </mxCell>
        <mxCell id="ZhSO84Uctp8xHZLFIqNB-6" style="edgeStyle=orthogonalEdgeStyle;curved=1;rounded=0;orthogonalLoop=1;jettySize=auto;html=1;endArrow=classicThin;endFill=1;strokeWidth=4;fontFamily=Courier New;fontColor=#009900;fillColor=#f8cecc;strokeColor=#b85450;" edge="1" parent="84KTpsVSsy3dv5a97gq0-1">
          <mxGeometry relative="1" as="geometry">
            <mxPoint x="1170" y="1605" as="sourcePoint" />
            <mxPoint x="1358.63" y="1722" as="targetPoint" />
          </mxGeometry>
        </mxCell>
        <mxCell id="ZhSO84Uctp8xHZLFIqNB-8" value="Bunu da ekle" style="whiteSpace=wrap;html=1;" vertex="1" parent="84KTpsVSsy3dv5a97gq0-1">
          <mxGeometry x="1052.25" y="1590" width="120" height="30" as="geometry" />
        </mxCell>
      </root>
    </mxGraphModel>
  </diagram>
  <diagram id="53IQXVl9icCSp_Kw3Ib1" name="Page-2">
    <mxGraphModel dx="1212" dy="1984" grid="1" gridSize="10" guides="1" tooltips="1" connect="1" arrows="1" fold="1" page="1" pageScale="1" pageWidth="1100" pageHeight="850" math="0" shadow="0">
      <root>
        <mxCell id="0" />
        <mxCell id="1" parent="0" />
        <mxCell id="uWUnNED6HEl2aK5fdaIb-7" value="Hotfix Commit" style="text;html=1;strokeColor=none;fillColor=none;align=center;verticalAlign=middle;whiteSpace=wrap;overflow=hidden;" parent="1" vertex="1">
          <mxGeometry x="414.5" y="-291" width="80" height="30" as="geometry" />
        </mxCell>
        <mxCell id="uWUnNED6HEl2aK5fdaIb-8" value="" style="edgeStyle=orthogonalEdgeStyle;rounded=0;html=1;jettySize=auto;orthogonalLoop=1;plain-blue;endArrow=none;endFill=0;strokeWidth=4;strokeColor=#000000;entryX=0;entryY=0.5;entryDx=0;entryDy=0;entryPerimeter=0;" parent="1" source="uWUnNED6HEl2aK5fdaIb-10" target="9hBKPDzoitwpIBdzFDQ7-16" edge="1">
          <mxGeometry x="279.5" y="-306" as="geometry">
            <mxPoint x="429.5" y="-306" as="targetPoint" />
          </mxGeometry>
        </mxCell>
        <mxCell id="uWUnNED6HEl2aK5fdaIb-9" style="edgeStyle=orthogonalEdgeStyle;curved=1;rounded=0;html=1;exitX=1;exitY=0.5;exitPerimeter=0;entryX=0;entryY=0.5;entryPerimeter=0;endArrow=none;endFill=0;jettySize=auto;orthogonalLoop=1;strokeWidth=4;fontSize=15;" parent="1" source="uWUnNED6HEl2aK5fdaIb-10" target="uWUnNED6HEl2aK5fdaIb-15" edge="1">
          <mxGeometry relative="1" as="geometry" />
        </mxCell>
        <mxCell id="uWUnNED6HEl2aK5fdaIb-10" value="" style="verticalLabelPosition=bottom;verticalAlign=top;html=1;strokeWidth=4;shape=mxgraph.flowchart.on-page_reference;plain-blue;gradientColor=none;fillColor=#B5E3Fe;strokeColor=#000000;" parent="1" vertex="1">
          <mxGeometry x="249.5" y="-321" width="30" height="30" as="geometry" />
        </mxCell>
        <mxCell id="uWUnNED6HEl2aK5fdaIb-80" value="" style="edgeStyle=orthogonalEdgeStyle;curved=1;rounded=0;orthogonalLoop=1;jettySize=auto;html=1;endArrow=none;endFill=0;strokeWidth=4;entryX=0;entryY=0.5;entryDx=0;entryDy=0;entryPerimeter=0;" parent="1" source="uWUnNED6HEl2aK5fdaIb-11" target="uWUnNED6HEl2aK5fdaIb-109" edge="1">
          <mxGeometry relative="1" as="geometry">
            <mxPoint x="721.7499999999995" y="-306" as="targetPoint" />
          </mxGeometry>
        </mxCell>
        <mxCell id="uWUnNED6HEl2aK5fdaIb-105" style="edgeStyle=orthogonalEdgeStyle;curved=1;rounded=0;orthogonalLoop=1;jettySize=auto;html=1;exitX=1;exitY=0.5;exitDx=0;exitDy=0;exitPerimeter=0;entryX=0;entryY=0.5;entryDx=0;entryDy=0;entryPerimeter=0;endArrow=none;endFill=0;strokeWidth=4;fontFamily=Courier New;fontColor=#009900;" parent="1" source="uWUnNED6HEl2aK5fdaIb-11" target="uWUnNED6HEl2aK5fdaIb-104" edge="1">
          <mxGeometry relative="1" as="geometry" />
        </mxCell>
        <mxCell id="uWUnNED6HEl2aK5fdaIb-11" value="" style="verticalLabelPosition=bottom;verticalAlign=top;html=1;strokeWidth=4;shape=mxgraph.flowchart.on-page_reference;plain-blue;gradientColor=none;strokeColor=#000000;fillColor=#B5E3FE;" parent="1" vertex="1">
          <mxGeometry x="609.5" y="-321" width="30" height="30" as="geometry" />
        </mxCell>
        <mxCell id="uWUnNED6HEl2aK5fdaIb-109" value="" style="verticalLabelPosition=bottom;verticalAlign=top;html=1;strokeWidth=4;shape=mxgraph.flowchart.on-page_reference;plain-blue;gradientColor=none;strokeColor=#33001A;fillColor=#B5E3FE;" parent="1" vertex="1">
          <mxGeometry x="848.5" y="-321" width="30" height="30" as="geometry" />
        </mxCell>
        <mxCell id="uWUnNED6HEl2aK5fdaIb-12" value="" style="edgeStyle=orthogonalEdgeStyle;rounded=0;html=1;jettySize=auto;orthogonalLoop=1;strokeWidth=4;endArrow=none;endFill=0;" parent="1" target="uWUnNED6HEl2aK5fdaIb-10" edge="1">
          <mxGeometry x="179.5" y="-306" as="geometry">
            <mxPoint x="137.25" y="-306" as="sourcePoint" />
          </mxGeometry>
        </mxCell>
        <mxCell id="uWUnNED6HEl2aK5fdaIb-13" value="master" style="text;html=1;strokeColor=none;fillColor=none;align=center;verticalAlign=middle;whiteSpace=wrap;overflow=hidden;fontSize=14;fontStyle=1;fontFamily=Courier New;" parent="1" vertex="1">
          <mxGeometry x="70.25" y="-327" width="50" height="42" as="geometry" />
        </mxCell>
        <mxCell id="uWUnNED6HEl2aK5fdaIb-14" style="edgeStyle=orthogonalEdgeStyle;curved=1;rounded=0;html=1;exitX=1;exitY=0.5;exitPerimeter=0;endArrow=none;endFill=0;jettySize=auto;orthogonalLoop=1;strokeWidth=4;fontSize=15;" parent="1" source="uWUnNED6HEl2aK5fdaIb-15" target="uWUnNED6HEl2aK5fdaIb-17" edge="1">
          <mxGeometry relative="1" as="geometry" />
        </mxCell>
        <mxCell id="uWUnNED6HEl2aK5fdaIb-15" value="" style="verticalLabelPosition=bottom;verticalAlign=top;html=1;strokeWidth=4;shape=mxgraph.flowchart.on-page_reference;plain-purple;gradientColor=none;strokeColor=#000000;fillColor=#D5E8D4;" parent="1" vertex="1">
          <mxGeometry x="362" y="-480" width="30" height="30" as="geometry" />
        </mxCell>
        <mxCell id="uWUnNED6HEl2aK5fdaIb-16" style="edgeStyle=orthogonalEdgeStyle;curved=1;rounded=0;html=1;exitX=1;exitY=0.5;exitPerimeter=0;entryX=0;entryY=0.5;entryPerimeter=0;endArrow=none;endFill=0;jettySize=auto;orthogonalLoop=1;strokeWidth=4;fontSize=15;" parent="1" source="uWUnNED6HEl2aK5fdaIb-17" target="uWUnNED6HEl2aK5fdaIb-19" edge="1">
          <mxGeometry relative="1" as="geometry" />
        </mxCell>
        <mxCell id="uWUnNED6HEl2aK5fdaIb-17" value="" style="verticalLabelPosition=bottom;verticalAlign=top;html=1;strokeWidth=4;shape=mxgraph.flowchart.on-page_reference;plain-purple;gradientColor=none;strokeColor=#000000;fillColor=#D5E8D4;" parent="1" vertex="1">
          <mxGeometry x="485.13" y="-480" width="30" height="30" as="geometry" />
        </mxCell>
        <mxCell id="uWUnNED6HEl2aK5fdaIb-18" style="edgeStyle=orthogonalEdgeStyle;curved=1;rounded=0;html=1;exitX=1;exitY=0.5;exitPerimeter=0;entryX=0;entryY=0.5;entryPerimeter=0;endArrow=none;endFill=0;jettySize=auto;orthogonalLoop=1;strokeWidth=4;fontSize=15;" parent="1" source="uWUnNED6HEl2aK5fdaIb-19" target="uWUnNED6HEl2aK5fdaIb-11" edge="1">
          <mxGeometry relative="1" as="geometry" />
        </mxCell>
        <mxCell id="uWUnNED6HEl2aK5fdaIb-19" value="" style="verticalLabelPosition=bottom;verticalAlign=top;html=1;strokeWidth=4;shape=mxgraph.flowchart.on-page_reference;plain-purple;gradientColor=none;strokeColor=#000000;fillColor=#D5E8D4;" parent="1" vertex="1">
          <mxGeometry x="567" y="-475" width="30" height="30" as="geometry" />
        </mxCell>
        <mxCell id="uWUnNED6HEl2aK5fdaIb-20" value="1.1.0-release" style="text;html=1;strokeColor=none;fillColor=none;align=left;verticalAlign=middle;whiteSpace=wrap;overflow=hidden;fontSize=14;fontStyle=1;fontFamily=Courier New;" parent="1" vertex="1">
          <mxGeometry x="37" y="-485" width="240" height="20" as="geometry" />
        </mxCell>
        <mxCell id="uWUnNED6HEl2aK5fdaIb-71" value="" style="edgeStyle=orthogonalEdgeStyle;rounded=0;orthogonalLoop=1;jettySize=auto;html=1;endArrow=none;endFill=0;strokeWidth=4;" parent="1" source="uWUnNED6HEl2aK5fdaIb-69" target="uWUnNED6HEl2aK5fdaIb-70" edge="1">
          <mxGeometry relative="1" as="geometry" />
        </mxCell>
        <mxCell id="uWUnNED6HEl2aK5fdaIb-94" style="edgeStyle=orthogonalEdgeStyle;curved=1;rounded=0;orthogonalLoop=1;jettySize=auto;html=1;exitX=1;exitY=0.5;exitDx=0;exitDy=0;exitPerimeter=0;entryX=0;entryY=0.5;entryDx=0;entryDy=0;entryPerimeter=0;endArrow=none;endFill=0;strokeWidth=4;fontFamily=Courier New;fontColor=#009900;" parent="1" source="uWUnNED6HEl2aK5fdaIb-69" target="uWUnNED6HEl2aK5fdaIb-82" edge="1">
          <mxGeometry relative="1" as="geometry" />
        </mxCell>
        <mxCell id="uWUnNED6HEl2aK5fdaIb-69" value="" style="verticalLabelPosition=bottom;verticalAlign=top;html=1;strokeWidth=4;shape=mxgraph.flowchart.on-page_reference;plain-purple;gradientColor=none;strokeColor=#000000;fillColor=#D5E8D4;" parent="1" vertex="1">
          <mxGeometry x="1052.5" y="-436" width="30" height="30" as="geometry" />
        </mxCell>
        <mxCell id="uWUnNED6HEl2aK5fdaIb-78" value="" style="edgeStyle=orthogonalEdgeStyle;curved=1;rounded=0;orthogonalLoop=1;jettySize=auto;html=1;endArrow=none;endFill=0;strokeWidth=4;" parent="1" source="uWUnNED6HEl2aK5fdaIb-70" target="uWUnNED6HEl2aK5fdaIb-77" edge="1">
          <mxGeometry relative="1" as="geometry" />
        </mxCell>
        <mxCell id="uWUnNED6HEl2aK5fdaIb-70" value="" style="verticalLabelPosition=bottom;verticalAlign=top;html=1;strokeWidth=4;shape=mxgraph.flowchart.on-page_reference;plain-purple;gradientColor=none;strokeColor=#000000;fillColor=#D5E8D4;" parent="1" vertex="1">
          <mxGeometry x="1150.5" y="-436" width="30" height="30" as="geometry" />
        </mxCell>
        <mxCell id="uWUnNED6HEl2aK5fdaIb-96" value="" style="edgeStyle=orthogonalEdgeStyle;curved=1;rounded=0;orthogonalLoop=1;jettySize=auto;html=1;endArrow=none;endFill=0;strokeWidth=4;fontFamily=Courier New;fontColor=#009900;" parent="1" source="uWUnNED6HEl2aK5fdaIb-77" target="uWUnNED6HEl2aK5fdaIb-95" edge="1">
          <mxGeometry relative="1" as="geometry" />
        </mxCell>
        <mxCell id="uWUnNED6HEl2aK5fdaIb-77" value="" style="verticalLabelPosition=bottom;verticalAlign=top;html=1;strokeWidth=4;shape=mxgraph.flowchart.on-page_reference;plain-purple;gradientColor=none;strokeColor=#000000;fillColor=#D5E8D4;" parent="1" vertex="1">
          <mxGeometry x="1230.5" y="-436" width="30" height="30" as="geometry" />
        </mxCell>
        <mxCell id="uWUnNED6HEl2aK5fdaIb-108" style="edgeStyle=orthogonalEdgeStyle;curved=1;rounded=0;orthogonalLoop=1;jettySize=auto;html=1;entryX=0;entryY=0.5;entryDx=0;entryDy=0;entryPerimeter=0;endArrow=none;endFill=0;strokeWidth=4;fontFamily=Courier New;fontColor=#009900;" parent="1" source="uWUnNED6HEl2aK5fdaIb-95" target="uWUnNED6HEl2aK5fdaIb-106" edge="1">
          <mxGeometry relative="1" as="geometry" />
        </mxCell>
        <mxCell id="uWUnNED6HEl2aK5fdaIb-95" value="" style="verticalLabelPosition=bottom;verticalAlign=top;html=1;strokeWidth=4;shape=mxgraph.flowchart.on-page_reference;plain-purple;gradientColor=none;strokeColor=#000000;fillColor=#D5E8D4;" parent="1" vertex="1">
          <mxGeometry x="1332.5" y="-436" width="30" height="30" as="geometry" />
        </mxCell>
        <mxCell id="uWUnNED6HEl2aK5fdaIb-81" value="" style="edgeStyle=orthogonalEdgeStyle;rounded=0;orthogonalLoop=1;jettySize=auto;html=1;endArrow=none;endFill=0;strokeWidth=4;" parent="1" source="uWUnNED6HEl2aK5fdaIb-82" target="uWUnNED6HEl2aK5fdaIb-84" edge="1">
          <mxGeometry relative="1" as="geometry" />
        </mxCell>
        <mxCell id="uWUnNED6HEl2aK5fdaIb-82" value="" style="verticalLabelPosition=bottom;verticalAlign=top;html=1;strokeWidth=4;shape=mxgraph.flowchart.on-page_reference;plain-purple;gradientColor=none;strokeColor=#000000;fillColor=#D5E8D4;" parent="1" vertex="1">
          <mxGeometry x="1136.5" y="-357" width="30" height="30" as="geometry" />
        </mxCell>
        <mxCell id="uWUnNED6HEl2aK5fdaIb-97" style="edgeStyle=orthogonalEdgeStyle;curved=1;rounded=0;orthogonalLoop=1;jettySize=auto;html=1;exitX=1;exitY=0.5;exitDx=0;exitDy=0;exitPerimeter=0;entryX=0;entryY=0.5;entryDx=0;entryDy=0;entryPerimeter=0;endArrow=none;endFill=0;strokeWidth=4;fontFamily=Courier New;fontColor=#009900;" parent="1" source="uWUnNED6HEl2aK5fdaIb-84" target="uWUnNED6HEl2aK5fdaIb-95" edge="1">
          <mxGeometry relative="1" as="geometry" />
        </mxCell>
        <mxCell id="uWUnNED6HEl2aK5fdaIb-84" value="" style="verticalLabelPosition=bottom;verticalAlign=top;html=1;strokeWidth=4;shape=mxgraph.flowchart.on-page_reference;plain-purple;gradientColor=none;strokeColor=#000000;fillColor=#D5E8D4;" parent="1" vertex="1">
          <mxGeometry x="1247.5" y="-357" width="30" height="30" as="geometry" />
        </mxCell>
        <mxCell id="uWUnNED6HEl2aK5fdaIb-89" value="The release branch" style="text;html=1;strokeColor=none;fillColor=none;align=left;verticalAlign=middle;whiteSpace=wrap;overflow=hidden;fontSize=14;fontStyle=0;fontColor=#009900;" parent="1" vertex="1">
          <mxGeometry x="35" y="-465" width="240" height="20" as="geometry" />
        </mxCell>
        <mxCell id="uWUnNED6HEl2aK5fdaIb-90" value="The main branch&lt;br&gt;" style="text;html=1;strokeColor=none;fillColor=none;align=left;verticalAlign=middle;whiteSpace=wrap;overflow=hidden;fontSize=14;fontStyle=0;fontColor=#009900;" parent="1" vertex="1">
          <mxGeometry x="60.5" y="-270" width="146.75" height="20" as="geometry" />
        </mxCell>
        <mxCell id="uWUnNED6HEl2aK5fdaIb-93" value="" style="endArrow=classic;html=1;strokeWidth=1;fontFamily=Courier New;fontColor=#009900;" parent="1" edge="1">
          <mxGeometry width="50" height="50" relative="1" as="geometry">
            <mxPoint x="165" y="-475" as="sourcePoint" />
            <mxPoint x="245" y="-475" as="targetPoint" />
          </mxGeometry>
        </mxCell>
        <mxCell id="uWUnNED6HEl2aK5fdaIb-101" value="Tag: 1.1.0" style="text;html=1;strokeColor=none;fillColor=none;align=center;verticalAlign=middle;whiteSpace=wrap;overflow=hidden;fontSize=14;" parent="1" vertex="1">
          <mxGeometry x="577.5" y="-347" width="110" height="20" as="geometry" />
        </mxCell>
        <mxCell id="uWUnNED6HEl2aK5fdaIb-103" value="Tag: 1.0.0" style="text;html=1;strokeColor=none;fillColor=none;align=center;verticalAlign=middle;whiteSpace=wrap;overflow=hidden;fontSize=14;" parent="1" vertex="1">
          <mxGeometry x="229.5" y="-347" width="70" height="20" as="geometry" />
        </mxCell>
        <mxCell id="uWUnNED6HEl2aK5fdaIb-107" value="" style="edgeStyle=orthogonalEdgeStyle;curved=1;rounded=0;orthogonalLoop=1;jettySize=auto;html=1;endArrow=none;endFill=0;strokeWidth=4;fontFamily=Courier New;fontColor=#009900;" parent="1" source="uWUnNED6HEl2aK5fdaIb-104" target="uWUnNED6HEl2aK5fdaIb-106" edge="1">
          <mxGeometry relative="1" as="geometry" />
        </mxCell>
        <mxCell id="uWUnNED6HEl2aK5fdaIb-104" value="" style="verticalLabelPosition=bottom;verticalAlign=top;html=1;strokeWidth=4;shape=mxgraph.flowchart.on-page_reference;plain-purple;gradientColor=none;strokeColor=#000000;fillColor=#D5E8D4;" parent="1" vertex="1">
          <mxGeometry x="679.25" y="-480" width="30" height="30" as="geometry" />
        </mxCell>
        <mxCell id="uWUnNED6HEl2aK5fdaIb-115" style="edgeStyle=orthogonalEdgeStyle;curved=1;rounded=0;orthogonalLoop=1;jettySize=auto;html=1;entryX=0;entryY=0.5;entryDx=0;entryDy=0;entryPerimeter=0;endArrow=none;endFill=0;strokeWidth=4;fontFamily=Courier New;fontColor=#009900;" parent="1" source="uWUnNED6HEl2aK5fdaIb-106" target="uWUnNED6HEl2aK5fdaIb-109" edge="1">
          <mxGeometry relative="1" as="geometry" />
        </mxCell>
        <mxCell id="uWUnNED6HEl2aK5fdaIb-106" value="" style="verticalLabelPosition=bottom;verticalAlign=top;html=1;strokeWidth=4;shape=mxgraph.flowchart.on-page_reference;plain-purple;gradientColor=none;strokeColor=#000000;fillColor=#D5E8D4;" parent="1" vertex="1">
          <mxGeometry x="781.5" y="-480" width="30" height="30" as="geometry" />
        </mxCell>
        <mxCell id="uWUnNED6HEl2aK5fdaIb-116" value="Tag: 1.2.0" style="text;html=1;strokeColor=none;fillColor=none;align=center;verticalAlign=middle;whiteSpace=wrap;overflow=hidden;fontSize=14;" parent="1" vertex="1">
          <mxGeometry x="799.5" y="-349" width="110" height="20" as="geometry" />
        </mxCell>
        <mxCell id="fSnZ5vnYTslC5NarKmr_-1" value="" style="endArrow=classic;html=1;strokeWidth=1;fontFamily=Courier New;fontColor=#009900;" parent="1" edge="1">
          <mxGeometry width="50" height="50" relative="1" as="geometry">
            <mxPoint x="350.16" y="645" as="sourcePoint" />
            <mxPoint x="350.16" y="595" as="targetPoint" />
          </mxGeometry>
        </mxCell>
        <mxCell id="fSnZ5vnYTslC5NarKmr_-4" value="&lt;span style=&quot;text-align: center&quot;&gt;New project development started&lt;br&gt;&lt;/span&gt;" style="text;html=1;strokeColor=none;fillColor=none;align=left;verticalAlign=middle;whiteSpace=wrap;overflow=hidden;fontSize=12;fontStyle=0;fontColor=#000000;" parent="1" vertex="1">
          <mxGeometry x="226.75" y="640" width="190" height="20" as="geometry" />
        </mxCell>
        <mxCell id="fSnZ5vnYTslC5NarKmr_-9" value="" style="edgeStyle=orthogonalEdgeStyle;rounded=0;orthogonalLoop=1;jettySize=auto;html=1;fontSize=12;fontColor=#000000;entryX=0;entryY=0.5;entryDx=0;entryDy=0;" parent="1" source="fSnZ5vnYTslC5NarKmr_-8" target="uWUnNED6HEl2aK5fdaIb-103" edge="1">
          <mxGeometry relative="1" as="geometry">
            <mxPoint x="209.5" y="-337" as="targetPoint" />
            <Array as="points">
              <mxPoint x="209.5" y="-337" />
              <mxPoint x="209.5" y="-337" />
            </Array>
          </mxGeometry>
        </mxCell>
        <mxCell id="fSnZ5vnYTslC5NarKmr_-8" value="&lt;span style=&quot;text-align: center; font-size: 11px;&quot;&gt;Each tag represents a production release.&lt;/span&gt;" style="text;html=1;strokeColor=none;fillColor=none;align=left;verticalAlign=middle;whiteSpace=wrap;overflow=hidden;fontSize=11;fontStyle=0;fontColor=#000000;" parent="1" vertex="1">
          <mxGeometry x="81.75" y="-359" width="120" height="38" as="geometry" />
        </mxCell>
        <mxCell id="fSnZ5vnYTslC5NarKmr_-11" value="Example Git Branching Diagrams" style="text;html=1;strokeColor=none;fillColor=none;align=center;verticalAlign=middle;whiteSpace=wrap;rounded=0;fontSize=33;fontColor=#000000;" parent="1" vertex="1">
          <mxGeometry x="263.5" y="-550" width="538" height="40" as="geometry" />
        </mxCell>
        <mxCell id="9hBKPDzoitwpIBdzFDQ7-21" value="" style="edgeStyle=orthogonalEdgeStyle;rounded=0;orthogonalLoop=1;jettySize=auto;html=1;fontSize=15;endArrow=none;endFill=0;strokeWidth=4;entryX=0;entryY=0.5;entryDx=0;entryDy=0;entryPerimeter=0;" parent="1" source="9hBKPDzoitwpIBdzFDQ7-16" target="uWUnNED6HEl2aK5fdaIb-11" edge="1">
          <mxGeometry relative="1" as="geometry">
            <mxPoint x="547.5" y="-306" as="targetPoint" />
          </mxGeometry>
        </mxCell>
        <mxCell id="9hBKPDzoitwpIBdzFDQ7-16" value="" style="verticalLabelPosition=bottom;verticalAlign=top;html=1;strokeWidth=4;shape=mxgraph.flowchart.on-page_reference;plain-blue;gradientColor=#EA6B66;strokeColor=#B85450;fillColor=#F8CECC;" parent="1" vertex="1">
          <mxGeometry x="377.87" y="-321" width="30" height="30" as="geometry" />
        </mxCell>
        <mxCell id="9hBKPDzoitwpIBdzFDQ7-23" value="" style="edgeStyle=orthogonalEdgeStyle;rounded=0;html=1;jettySize=auto;orthogonalLoop=1;plain-blue;endArrow=none;endFill=0;strokeWidth=4;strokeColor=#000000;" parent="1" source="9hBKPDzoitwpIBdzFDQ7-25" target="9hBKPDzoitwpIBdzFDQ7-26" edge="1">
          <mxGeometry x="292.5" y="500" as="geometry" />
        </mxCell>
        <mxCell id="9hBKPDzoitwpIBdzFDQ7-24" style="edgeStyle=orthogonalEdgeStyle;curved=1;rounded=0;html=1;exitX=1;exitY=0.5;exitPerimeter=0;entryX=0;entryY=0.5;entryPerimeter=0;endArrow=none;endFill=0;jettySize=auto;orthogonalLoop=1;strokeWidth=4;fontSize=15;" parent="1" source="9hBKPDzoitwpIBdzFDQ7-25" target="9hBKPDzoitwpIBdzFDQ7-30" edge="1">
          <mxGeometry relative="1" as="geometry" />
        </mxCell>
        <mxCell id="9hBKPDzoitwpIBdzFDQ7-25" value="" style="verticalLabelPosition=bottom;verticalAlign=top;html=1;strokeWidth=4;shape=mxgraph.flowchart.on-page_reference;plain-blue;gradientColor=none;fillColor=#B5E3Fe;strokeColor=#000000;" parent="1" vertex="1">
          <mxGeometry x="262.5" y="485" width="30" height="30" as="geometry" />
        </mxCell>
        <mxCell id="9hBKPDzoitwpIBdzFDQ7-41" value="" style="edgeStyle=orthogonalEdgeStyle;curved=1;rounded=0;orthogonalLoop=1;jettySize=auto;html=1;endArrow=none;endFill=0;strokeWidth=4;fontFamily=Courier New;fontSize=16;" parent="1" source="9hBKPDzoitwpIBdzFDQ7-26" edge="1">
          <mxGeometry relative="1" as="geometry">
            <mxPoint x="581.75" y="500" as="targetPoint" />
          </mxGeometry>
        </mxCell>
        <mxCell id="9hBKPDzoitwpIBdzFDQ7-26" value="" style="verticalLabelPosition=bottom;verticalAlign=top;html=1;strokeWidth=4;shape=mxgraph.flowchart.on-page_reference;plain-blue;gradientColor=none;strokeColor=#000000;" parent="1" vertex="1">
          <mxGeometry x="500.75" y="485" width="30" height="30" as="geometry" />
        </mxCell>
        <mxCell id="9hBKPDzoitwpIBdzFDQ7-43" value="" style="edgeStyle=orthogonalEdgeStyle;curved=1;rounded=0;orthogonalLoop=1;jettySize=auto;html=1;endArrow=openThin;endFill=0;strokeWidth=4;fontFamily=Courier New;fontSize=16;startArrow=none;startFill=0;" parent="1" edge="1">
          <mxGeometry relative="1" as="geometry">
            <mxPoint x="611.75" y="500" as="sourcePoint" />
            <mxPoint x="1070" y="500" as="targetPoint" />
          </mxGeometry>
        </mxCell>
        <mxCell id="9hBKPDzoitwpIBdzFDQ7-27" value="" style="edgeStyle=orthogonalEdgeStyle;rounded=0;html=1;jettySize=auto;orthogonalLoop=1;strokeWidth=4;endArrow=none;endFill=0;" parent="1" target="9hBKPDzoitwpIBdzFDQ7-25" edge="1">
          <mxGeometry x="192.5" y="500" as="geometry">
            <mxPoint x="148" y="500" as="sourcePoint" />
          </mxGeometry>
        </mxCell>
        <mxCell id="9hBKPDzoitwpIBdzFDQ7-28" value="master" style="text;html=1;strokeColor=none;fillColor=none;align=center;verticalAlign=middle;whiteSpace=wrap;overflow=hidden;fontSize=14;fontStyle=1;fontFamily=Courier New;" parent="1" vertex="1">
          <mxGeometry x="78" y="490" width="50" height="20" as="geometry" />
        </mxCell>
        <mxCell id="9hBKPDzoitwpIBdzFDQ7-29" style="edgeStyle=orthogonalEdgeStyle;curved=1;rounded=0;html=1;exitX=1;exitY=0.5;exitPerimeter=0;entryX=0;entryY=0.5;entryPerimeter=0;endArrow=none;endFill=0;jettySize=auto;orthogonalLoop=1;strokeWidth=4;fontSize=15;" parent="1" source="9hBKPDzoitwpIBdzFDQ7-30" edge="1">
          <mxGeometry relative="1" as="geometry">
            <mxPoint x="407.5" y="580" as="targetPoint" />
          </mxGeometry>
        </mxCell>
        <mxCell id="9hBKPDzoitwpIBdzFDQ7-30" value="" style="verticalLabelPosition=bottom;verticalAlign=top;html=1;strokeWidth=4;shape=mxgraph.flowchart.on-page_reference;plain-purple;gradientColor=none;strokeColor=#000000;fillColor=#D5E8D4;" parent="1" vertex="1">
          <mxGeometry x="335.5" y="565" width="30" height="30" as="geometry" />
        </mxCell>
        <mxCell id="9hBKPDzoitwpIBdzFDQ7-33" style="edgeStyle=orthogonalEdgeStyle;curved=1;rounded=0;html=1;entryX=0;entryY=0.5;entryPerimeter=0;endArrow=none;endFill=0;jettySize=auto;orthogonalLoop=1;strokeWidth=4;fontSize=15;" parent="1" target="9hBKPDzoitwpIBdzFDQ7-26" edge="1">
          <mxGeometry relative="1" as="geometry">
            <mxPoint x="440" y="580" as="sourcePoint" />
          </mxGeometry>
        </mxCell>
        <mxCell id="9hBKPDzoitwpIBdzFDQ7-37" value="The main branch&lt;br&gt;" style="text;html=1;strokeColor=none;fillColor=none;align=left;verticalAlign=middle;whiteSpace=wrap;overflow=hidden;fontSize=14;fontStyle=0;fontColor=#009900;" parent="1" vertex="1">
          <mxGeometry x="83.25" y="510" width="132.25" height="20" as="geometry" />
        </mxCell>
        <mxCell id="9hBKPDzoitwpIBdzFDQ7-38" value="Development Branches" style="text;html=1;strokeColor=none;fillColor=none;align=left;verticalAlign=middle;whiteSpace=wrap;overflow=hidden;fontSize=14;fontStyle=0;fontColor=#009900;" parent="1" vertex="1">
          <mxGeometry x="84.25" y="595" width="155.75" height="20" as="geometry" />
        </mxCell>
        <mxCell id="9hBKPDzoitwpIBdzFDQ7-39" value="Tag: 1.0.0" style="text;html=1;strokeColor=none;fillColor=none;align=center;verticalAlign=middle;whiteSpace=wrap;overflow=hidden;fontSize=14;" parent="1" vertex="1">
          <mxGeometry x="246.38" y="460" width="70" height="20" as="geometry" />
        </mxCell>
        <mxCell id="9hBKPDzoitwpIBdzFDQ7-50" value="" style="verticalLabelPosition=bottom;verticalAlign=top;html=1;strokeWidth=4;shape=mxgraph.flowchart.on-page_reference;plain-blue;gradientColor=#EA6B66;strokeColor=#B85450;fillColor=#F8CECC;" parent="1" vertex="1">
          <mxGeometry x="726.75" y="445" width="30" height="30" as="geometry" />
        </mxCell>
        <mxCell id="9hBKPDzoitwpIBdzFDQ7-58" value="Hotfix Commit" style="text;html=1;strokeColor=none;fillColor=none;align=center;verticalAlign=middle;whiteSpace=wrap;overflow=hidden;" parent="1" vertex="1">
          <mxGeometry x="1735" y="-430" width="80" height="30" as="geometry" />
        </mxCell>
        <mxCell id="9hBKPDzoitwpIBdzFDQ7-61" value="Tag: 1.0.1" style="text;html=1;strokeColor=none;fillColor=none;align=center;verticalAlign=middle;whiteSpace=wrap;overflow=hidden;fontSize=14;" parent="1" vertex="1">
          <mxGeometry x="415.75" y="-347" width="70" height="20" as="geometry" />
        </mxCell>
        <mxCell id="Aw5nuIuxygXo4i3qd4Me-7" value="&lt;b&gt;M&lt;/b&gt;" style="whiteSpace=wrap;html=1;verticalAlign=top;fillColor=#D5E8D4;strokeColor=#000000;strokeWidth=4;gradientColor=none;" parent="1" vertex="1">
          <mxGeometry x="409.5" y="565" width="30" height="30" as="geometry" />
        </mxCell>
        <mxCell id="Aw5nuIuxygXo4i3qd4Me-9" value="" style="endArrow=classic;html=1;strokeWidth=1;fontFamily=Courier New;fontColor=#009900;" parent="1" edge="1">
          <mxGeometry width="50" height="50" relative="1" as="geometry">
            <mxPoint x="515.4099999999999" y="620" as="sourcePoint" />
            <mxPoint x="470" y="560" as="targetPoint" />
          </mxGeometry>
        </mxCell>
        <mxCell id="Aw5nuIuxygXo4i3qd4Me-10" value="&lt;span style=&quot;text-align: center&quot;&gt;UAT Start&lt;br&gt;&lt;/span&gt;" style="text;html=1;strokeColor=none;fillColor=none;align=left;verticalAlign=middle;whiteSpace=wrap;overflow=hidden;fontSize=12;fontStyle=0;fontColor=#000000;" parent="1" vertex="1">
          <mxGeometry x="481.88" y="620" width="71.5" height="20" as="geometry" />
        </mxCell>
        <mxCell id="Aw5nuIuxygXo4i3qd4Me-11" value="&lt;div&gt;&lt;b&gt;&lt;font style=&quot;font-size: 13px&quot;&gt;M&lt;/font&gt;&lt;/b&gt;&lt;/div&gt;" style="whiteSpace=wrap;html=1;verticalAlign=top;fillColor=#DAE8FC;strokeColor=#000000;strokeWidth=4;gradientColor=none;align=center;" parent="1" vertex="1">
          <mxGeometry x="581.75" y="485" width="30" height="30" as="geometry" />
        </mxCell>
        <mxCell id="Aw5nuIuxygXo4i3qd4Me-14" value="" style="edgeStyle=orthogonalEdgeStyle;curved=1;rounded=0;orthogonalLoop=1;jettySize=auto;html=1;endArrow=none;endFill=0;strokeWidth=4;fontFamily=Courier New;fontSize=16;exitX=0.5;exitY=0;exitDx=0;exitDy=0;" parent="1" source="Aw5nuIuxygXo4i3qd4Me-11" edge="1">
          <mxGeometry relative="1" as="geometry">
            <mxPoint x="621.75" y="510" as="sourcePoint" />
            <mxPoint x="660" y="430" as="targetPoint" />
          </mxGeometry>
        </mxCell>
        <mxCell id="Aw5nuIuxygXo4i3qd4Me-15" value="" style="verticalLabelPosition=bottom;verticalAlign=top;html=1;strokeWidth=4;shape=mxgraph.flowchart.on-page_reference;strokeColor=#2D7600;fillColor=#60a917;fontColor=#ffffff;" parent="1" vertex="1">
          <mxGeometry x="644.75" y="400" width="30" height="30" as="geometry" />
        </mxCell>
        <mxCell id="Aw5nuIuxygXo4i3qd4Me-16" value="Tag: 1.1.0" style="text;html=1;strokeColor=none;fillColor=none;align=center;verticalAlign=middle;whiteSpace=wrap;overflow=hidden;fontSize=14;" parent="1" vertex="1">
          <mxGeometry x="624.75" y="370" width="70" height="20" as="geometry" />
        </mxCell>
        <mxCell id="Aw5nuIuxygXo4i3qd4Me-17" value="&lt;span style=&quot;text-align: center&quot;&gt;UAT End&lt;br&gt;&lt;/span&gt;" style="text;html=1;strokeColor=none;fillColor=none;align=left;verticalAlign=middle;whiteSpace=wrap;overflow=hidden;fontSize=12;fontStyle=0;fontColor=#000000;" parent="1" vertex="1">
          <mxGeometry x="500.75" y="395" width="52" height="20" as="geometry" />
        </mxCell>
        <mxCell id="Aw5nuIuxygXo4i3qd4Me-18" value="" style="endArrow=classic;html=1;strokeWidth=1;fontFamily=Courier New;fontColor=#009900;exitX=1;exitY=1;exitDx=0;exitDy=0;" parent="1" source="Aw5nuIuxygXo4i3qd4Me-17" edge="1">
          <mxGeometry width="50" height="50" relative="1" as="geometry">
            <mxPoint x="589.4099999999999" y="630" as="sourcePoint" />
            <mxPoint x="600" y="460" as="targetPoint" />
          </mxGeometry>
        </mxCell>
        <mxCell id="Aw5nuIuxygXo4i3qd4Me-19" value="Release branches" style="text;html=1;strokeColor=none;fillColor=none;align=left;verticalAlign=middle;whiteSpace=wrap;overflow=hidden;fontSize=14;fontStyle=0;fontColor=#009900;" parent="1" vertex="1">
          <mxGeometry x="83.25" y="400" width="132.25" height="20" as="geometry" />
        </mxCell>
        <mxCell id="Aw5nuIuxygXo4i3qd4Me-20" value="Tag: 1.1.0" style="text;html=1;strokeColor=none;fillColor=none;align=center;verticalAlign=middle;whiteSpace=wrap;overflow=hidden;fontSize=14;" parent="1" vertex="1">
          <mxGeometry x="561.75" y="425" width="70" height="20" as="geometry" />
        </mxCell>
        <mxCell id="Aw5nuIuxygXo4i3qd4Me-21" style="edgeStyle=orthogonalEdgeStyle;curved=1;rounded=0;orthogonalLoop=1;jettySize=auto;html=1;exitX=0.855;exitY=0.855;exitDx=0;exitDy=0;exitPerimeter=0;entryX=0;entryY=0.5;entryDx=0;entryDy=0;entryPerimeter=0;endArrow=classicThin;endFill=1;strokeWidth=4;fontFamily=Courier New;fontColor=#009900;" parent="1" source="Aw5nuIuxygXo4i3qd4Me-15" target="9hBKPDzoitwpIBdzFDQ7-50" edge="1">
          <mxGeometry relative="1" as="geometry">
            <mxPoint x="684.75" y="430" as="sourcePoint" />
            <mxPoint x="738.7499999999995" y="509" as="targetPoint" />
            <Array as="points">
              <mxPoint x="670" y="460" />
            </Array>
          </mxGeometry>
        </mxCell>
        <mxCell id="Aw5nuIuxygXo4i3qd4Me-22" style="edgeStyle=orthogonalEdgeStyle;curved=1;rounded=0;orthogonalLoop=1;jettySize=auto;html=1;entryX=0.5;entryY=0;entryDx=0;entryDy=0;entryPerimeter=0;endArrow=none;endFill=0;strokeWidth=4;fontFamily=Courier New;fontColor=#009900;startArrow=classic;startFill=1;" parent="1" source="Aw5nuIuxygXo4i3qd4Me-15" target="9hBKPDzoitwpIBdzFDQ7-50" edge="1">
          <mxGeometry relative="1" as="geometry">
            <mxPoint x="829" y="370" as="sourcePoint" />
            <mxPoint x="882.9999999999995" y="449" as="targetPoint" />
          </mxGeometry>
        </mxCell>
        <mxCell id="Aw5nuIuxygXo4i3qd4Me-23" style="edgeStyle=orthogonalEdgeStyle;curved=1;rounded=0;orthogonalLoop=1;jettySize=auto;html=1;exitX=0.855;exitY=0.855;exitDx=0;exitDy=0;exitPerimeter=0;endArrow=classicThin;endFill=1;strokeWidth=4;fontFamily=Courier New;fontColor=#009900;fillColor=#0050ef;strokeColor=#001DBC;" parent="1" edge="1">
          <mxGeometry relative="1" as="geometry">
            <mxPoint x="756.7500000000001" y="460.0000000000001" as="sourcePoint" />
            <mxPoint x="813" y="500" as="targetPoint" />
          </mxGeometry>
        </mxCell>
        <mxCell id="Aw5nuIuxygXo4i3qd4Me-24" value="" style="endArrow=classic;html=1;strokeWidth=1;fontFamily=Courier New;fontColor=#009900;" parent="1" edge="1">
          <mxGeometry width="50" height="50" relative="1" as="geometry">
            <mxPoint x="730.7499999999998" y="645" as="sourcePoint" />
            <mxPoint x="730.7499999999998" y="595" as="targetPoint" />
          </mxGeometry>
        </mxCell>
        <mxCell id="Aw5nuIuxygXo4i3qd4Me-25" value="" style="edgeStyle=orthogonalEdgeStyle;rounded=0;html=1;jettySize=auto;orthogonalLoop=1;plain-blue;endArrow=none;endFill=0;strokeWidth=4;strokeColor=#000000;" parent="1" edge="1">
          <mxGeometry x="673.0899999999999" y="500" as="geometry">
            <mxPoint x="673.0899999999999" y="500" as="sourcePoint" />
            <mxPoint x="881.3399999999999" y="500" as="targetPoint" />
          </mxGeometry>
        </mxCell>
        <mxCell id="Aw5nuIuxygXo4i3qd4Me-26" style="edgeStyle=orthogonalEdgeStyle;curved=1;rounded=0;html=1;exitX=1;exitY=0.5;exitPerimeter=0;entryX=0;entryY=0.5;entryPerimeter=0;endArrow=none;endFill=0;jettySize=auto;orthogonalLoop=1;strokeWidth=4;fontSize=15;" parent="1" target="Aw5nuIuxygXo4i3qd4Me-28" edge="1">
          <mxGeometry relative="1" as="geometry">
            <mxPoint x="673.0899999999999" y="500" as="sourcePoint" />
          </mxGeometry>
        </mxCell>
        <mxCell id="Aw5nuIuxygXo4i3qd4Me-27" style="edgeStyle=orthogonalEdgeStyle;curved=1;rounded=0;html=1;exitX=1;exitY=0.5;exitPerimeter=0;entryX=0;entryY=0.5;entryPerimeter=0;endArrow=none;endFill=0;jettySize=auto;orthogonalLoop=1;strokeWidth=4;fontSize=15;" parent="1" source="Aw5nuIuxygXo4i3qd4Me-28" edge="1">
          <mxGeometry relative="1" as="geometry">
            <mxPoint x="788.0899999999999" y="580" as="targetPoint" />
          </mxGeometry>
        </mxCell>
        <mxCell id="Aw5nuIuxygXo4i3qd4Me-28" value="" style="verticalLabelPosition=bottom;verticalAlign=top;html=1;strokeWidth=4;shape=mxgraph.flowchart.on-page_reference;plain-purple;gradientColor=none;strokeColor=#000000;fillColor=#D5E8D4;" parent="1" vertex="1">
          <mxGeometry x="716.0899999999999" y="565" width="30" height="30" as="geometry" />
        </mxCell>
        <mxCell id="Aw5nuIuxygXo4i3qd4Me-29" style="edgeStyle=orthogonalEdgeStyle;curved=1;rounded=0;html=1;entryX=0;entryY=0.5;entryPerimeter=0;endArrow=classic;endFill=1;jettySize=auto;orthogonalLoop=1;strokeWidth=4;fontSize=15;" parent="1" edge="1">
          <mxGeometry relative="1" as="geometry">
            <mxPoint x="820.5899999999999" y="580" as="sourcePoint" />
            <mxPoint x="881.3399999999999" y="500" as="targetPoint" />
          </mxGeometry>
        </mxCell>
        <mxCell id="Aw5nuIuxygXo4i3qd4Me-30" value="&lt;b&gt;M&lt;/b&gt;" style="whiteSpace=wrap;html=1;verticalAlign=top;fillColor=#D5E8D4;strokeColor=#000000;strokeWidth=4;gradientColor=none;" parent="1" vertex="1">
          <mxGeometry x="790.0899999999999" y="565" width="30" height="30" as="geometry" />
        </mxCell>
        <mxCell id="Aw5nuIuxygXo4i3qd4Me-32" style="edgeStyle=orthogonalEdgeStyle;curved=1;rounded=0;orthogonalLoop=1;jettySize=auto;html=1;endArrow=classicThin;endFill=1;strokeWidth=4;fontFamily=Courier New;fontColor=#009900;" parent="1" edge="1">
          <mxGeometry relative="1" as="geometry">
            <mxPoint x="810" y="500" as="sourcePoint" />
            <mxPoint x="830" y="580" as="targetPoint" />
          </mxGeometry>
        </mxCell>
        <mxCell id="Aw5nuIuxygXo4i3qd4Me-33" value="" style="endArrow=classic;html=1;strokeWidth=1;fontFamily=Courier New;fontColor=#009900;" parent="1" edge="1">
          <mxGeometry width="50" height="50" relative="1" as="geometry">
            <mxPoint x="600" y="580" as="sourcePoint" />
            <mxPoint x="600" y="520" as="targetPoint" />
          </mxGeometry>
        </mxCell>
        <mxCell id="Aw5nuIuxygXo4i3qd4Me-34" value="&lt;span style=&quot;text-align: center&quot;&gt;UAT Fix&lt;br&gt;&lt;/span&gt;" style="text;html=1;strokeColor=none;fillColor=none;align=left;verticalAlign=middle;whiteSpace=wrap;overflow=hidden;fontSize=12;fontStyle=0;fontColor=#000000;" parent="1" vertex="1">
          <mxGeometry x="575" y="580" width="52" height="20" as="geometry" />
        </mxCell>
        <mxCell id="Aw5nuIuxygXo4i3qd4Me-35" value="" style="verticalLabelPosition=bottom;verticalAlign=top;html=1;strokeWidth=4;shape=mxgraph.flowchart.on-page_reference;strokeColor=#2D7600;fillColor=#60a917;fontColor=#ffffff;" parent="1" vertex="1">
          <mxGeometry x="294.5" y="400" width="30" height="30" as="geometry" />
        </mxCell>
        <mxCell id="Aw5nuIuxygXo4i3qd4Me-36" value="" style="verticalLabelPosition=bottom;verticalAlign=top;html=1;strokeWidth=4;shape=mxgraph.flowchart.on-page_reference;plain-blue;gradientColor=#EA6B66;strokeColor=#B85450;fillColor=#F8CECC;" parent="1" vertex="1">
          <mxGeometry x="535" y="450" width="30" height="30" as="geometry" />
        </mxCell>
        <mxCell id="Aw5nuIuxygXo4i3qd4Me-37" style="edgeStyle=orthogonalEdgeStyle;curved=1;rounded=0;orthogonalLoop=1;jettySize=auto;html=1;exitX=0.855;exitY=0.855;exitDx=0;exitDy=0;exitPerimeter=0;entryX=0;entryY=0.5;entryDx=0;entryDy=0;entryPerimeter=0;endArrow=classicThin;endFill=1;strokeWidth=4;fontFamily=Courier New;fontColor=#009900;" parent="1" target="Aw5nuIuxygXo4i3qd4Me-36" edge="1">
          <mxGeometry relative="1" as="geometry">
            <mxPoint x="317.0000000000001" y="425.6600000000001" as="sourcePoint" />
            <mxPoint x="385.34999999999957" y="509.01" as="targetPoint" />
            <Array as="points">
              <mxPoint x="317" y="465" />
            </Array>
          </mxGeometry>
        </mxCell>
        <mxCell id="Aw5nuIuxygXo4i3qd4Me-38" style="edgeStyle=orthogonalEdgeStyle;curved=1;rounded=0;orthogonalLoop=1;jettySize=auto;html=1;exitX=1.175;exitY=0.333;exitDx=0;exitDy=0;exitPerimeter=0;entryX=0.5;entryY=0;entryDx=0;entryDy=0;entryPerimeter=0;endArrow=none;endFill=0;strokeWidth=4;fontFamily=Courier New;fontColor=#009900;startArrow=classic;startFill=1;" parent="1" target="Aw5nuIuxygXo4i3qd4Me-36" edge="1">
          <mxGeometry relative="1" as="geometry">
            <mxPoint x="326.6" y="410" as="sourcePoint" />
            <mxPoint x="529.5999999999996" y="449.01" as="targetPoint" />
          </mxGeometry>
        </mxCell>
        <mxCell id="Aw5nuIuxygXo4i3qd4Me-39" style="edgeStyle=orthogonalEdgeStyle;curved=1;rounded=0;orthogonalLoop=1;jettySize=auto;html=1;exitX=0.855;exitY=0.855;exitDx=0;exitDy=0;exitPerimeter=0;endArrow=classicThin;endFill=1;strokeWidth=4;fontFamily=Courier New;fontColor=#009900;fillColor=#0050ef;strokeColor=#001DBC;" parent="1" source="Aw5nuIuxygXo4i3qd4Me-36" edge="1">
          <mxGeometry relative="1" as="geometry">
            <mxPoint x="600.6500000000001" y="650.01" as="sourcePoint" />
            <mxPoint x="561" y="500" as="targetPoint" />
          </mxGeometry>
        </mxCell>
        <mxCell id="Aw5nuIuxygXo4i3qd4Me-40" value="" style="verticalLabelPosition=bottom;verticalAlign=top;html=1;strokeWidth=4;shape=mxgraph.flowchart.on-page_reference;strokeColor=#2D7600;fillColor=#60a917;fontColor=#ffffff;" parent="1" vertex="1">
          <mxGeometry x="910" y="390" width="30" height="30" as="geometry" />
        </mxCell>
        <mxCell id="-TSQm9L5DB0IVxmXl4sb-1" value="" style="endArrow=classic;html=1;strokeWidth=1;fontFamily=Courier New;fontColor=#009900;" parent="1" edge="1">
          <mxGeometry width="50" height="50" relative="1" as="geometry">
            <mxPoint x="342.40999999999985" y="205" as="sourcePoint" />
            <mxPoint x="342.40999999999985" y="155" as="targetPoint" />
          </mxGeometry>
        </mxCell>
        <mxCell id="-TSQm9L5DB0IVxmXl4sb-2" value="&lt;span style=&quot;text-align: center&quot;&gt;New project development started&lt;br&gt;&lt;/span&gt;" style="text;html=1;strokeColor=none;fillColor=none;align=left;verticalAlign=middle;whiteSpace=wrap;overflow=hidden;fontSize=12;fontStyle=0;fontColor=#000000;" parent="1" vertex="1">
          <mxGeometry x="219.5" y="200" width="190" height="20" as="geometry" />
        </mxCell>
        <mxCell id="-TSQm9L5DB0IVxmXl4sb-3" value="" style="edgeStyle=orthogonalEdgeStyle;rounded=0;html=1;jettySize=auto;orthogonalLoop=1;plain-blue;endArrow=none;endFill=0;strokeWidth=4;strokeColor=#000000;" parent="1" source="-TSQm9L5DB0IVxmXl4sb-5" target="-TSQm9L5DB0IVxmXl4sb-7" edge="1">
          <mxGeometry x="284.75" y="60" as="geometry" />
        </mxCell>
        <mxCell id="-TSQm9L5DB0IVxmXl4sb-4" style="edgeStyle=orthogonalEdgeStyle;curved=1;rounded=0;html=1;exitX=1;exitY=0.5;exitPerimeter=0;entryX=0;entryY=0.5;entryPerimeter=0;endArrow=none;endFill=0;jettySize=auto;orthogonalLoop=1;strokeWidth=4;fontSize=15;" parent="1" source="-TSQm9L5DB0IVxmXl4sb-5" target="-TSQm9L5DB0IVxmXl4sb-12" edge="1">
          <mxGeometry relative="1" as="geometry" />
        </mxCell>
        <mxCell id="-TSQm9L5DB0IVxmXl4sb-5" value="" style="verticalLabelPosition=bottom;verticalAlign=top;html=1;strokeWidth=4;shape=mxgraph.flowchart.on-page_reference;plain-blue;gradientColor=none;fillColor=#B5E3Fe;strokeColor=#000000;" parent="1" vertex="1">
          <mxGeometry x="254.75" y="45" width="30" height="30" as="geometry" />
        </mxCell>
        <mxCell id="-TSQm9L5DB0IVxmXl4sb-6" value="" style="edgeStyle=orthogonalEdgeStyle;curved=1;rounded=0;orthogonalLoop=1;jettySize=auto;html=1;endArrow=none;endFill=0;strokeWidth=4;fontFamily=Courier New;fontSize=16;" parent="1" source="-TSQm9L5DB0IVxmXl4sb-7" edge="1">
          <mxGeometry relative="1" as="geometry">
            <mxPoint x="574" y="60" as="targetPoint" />
          </mxGeometry>
        </mxCell>
        <mxCell id="-TSQm9L5DB0IVxmXl4sb-7" value="" style="verticalLabelPosition=bottom;verticalAlign=top;html=1;strokeWidth=4;shape=mxgraph.flowchart.on-page_reference;plain-blue;gradientColor=none;strokeColor=#000000;" parent="1" vertex="1">
          <mxGeometry x="493" y="45" width="30" height="30" as="geometry" />
        </mxCell>
        <mxCell id="-TSQm9L5DB0IVxmXl4sb-8" value="" style="edgeStyle=orthogonalEdgeStyle;curved=1;rounded=0;orthogonalLoop=1;jettySize=auto;html=1;endArrow=openThin;endFill=0;strokeWidth=4;fontFamily=Courier New;fontSize=16;startArrow=none;startFill=0;" parent="1" edge="1">
          <mxGeometry relative="1" as="geometry">
            <mxPoint x="604" y="60" as="sourcePoint" />
            <mxPoint x="1062.25" y="60" as="targetPoint" />
          </mxGeometry>
        </mxCell>
        <mxCell id="-TSQm9L5DB0IVxmXl4sb-9" value="" style="edgeStyle=orthogonalEdgeStyle;rounded=0;html=1;jettySize=auto;orthogonalLoop=1;strokeWidth=4;endArrow=none;endFill=0;" parent="1" target="-TSQm9L5DB0IVxmXl4sb-5" edge="1">
          <mxGeometry x="184.75" y="60" as="geometry">
            <mxPoint x="140.25" y="60" as="sourcePoint" />
          </mxGeometry>
        </mxCell>
        <mxCell id="-TSQm9L5DB0IVxmXl4sb-10" value="master" style="text;html=1;strokeColor=none;fillColor=none;align=center;verticalAlign=middle;whiteSpace=wrap;overflow=hidden;fontSize=14;fontStyle=1;fontFamily=Courier New;" parent="1" vertex="1">
          <mxGeometry x="70.25" y="50" width="50" height="20" as="geometry" />
        </mxCell>
        <mxCell id="-TSQm9L5DB0IVxmXl4sb-11" style="edgeStyle=orthogonalEdgeStyle;curved=1;rounded=0;html=1;exitX=1;exitY=0.5;exitPerimeter=0;entryX=0;entryY=0.5;entryPerimeter=0;endArrow=none;endFill=0;jettySize=auto;orthogonalLoop=1;strokeWidth=4;fontSize=15;" parent="1" source="-TSQm9L5DB0IVxmXl4sb-12" edge="1">
          <mxGeometry relative="1" as="geometry">
            <mxPoint x="399.75" y="140" as="targetPoint" />
          </mxGeometry>
        </mxCell>
        <mxCell id="-TSQm9L5DB0IVxmXl4sb-12" value="" style="verticalLabelPosition=bottom;verticalAlign=top;html=1;strokeWidth=4;shape=mxgraph.flowchart.on-page_reference;plain-purple;gradientColor=none;strokeColor=#000000;fillColor=#D5E8D4;" parent="1" vertex="1">
          <mxGeometry x="327.75" y="125" width="30" height="30" as="geometry" />
        </mxCell>
        <mxCell id="-TSQm9L5DB0IVxmXl4sb-13" style="edgeStyle=orthogonalEdgeStyle;curved=1;rounded=0;html=1;entryX=0;entryY=0.5;entryPerimeter=0;endArrow=none;endFill=0;jettySize=auto;orthogonalLoop=1;strokeWidth=4;fontSize=15;" parent="1" target="-TSQm9L5DB0IVxmXl4sb-7" edge="1">
          <mxGeometry relative="1" as="geometry">
            <mxPoint x="432.25" y="140" as="sourcePoint" />
          </mxGeometry>
        </mxCell>
        <mxCell id="-TSQm9L5DB0IVxmXl4sb-14" value="The main branch&lt;br&gt;" style="text;html=1;strokeColor=none;fillColor=none;align=left;verticalAlign=middle;whiteSpace=wrap;overflow=hidden;fontSize=14;fontStyle=0;fontColor=#009900;" parent="1" vertex="1">
          <mxGeometry x="75.5" y="70" width="132.25" height="20" as="geometry" />
        </mxCell>
        <mxCell id="-TSQm9L5DB0IVxmXl4sb-15" value="Development Branches" style="text;html=1;strokeColor=none;fillColor=none;align=left;verticalAlign=middle;whiteSpace=wrap;overflow=hidden;fontSize=14;fontStyle=0;fontColor=#009900;" parent="1" vertex="1">
          <mxGeometry x="77.13" y="135" width="155.75" height="20" as="geometry" />
        </mxCell>
        <mxCell id="-TSQm9L5DB0IVxmXl4sb-16" value="Tag: 1.0.0" style="text;html=1;strokeColor=none;fillColor=none;align=center;verticalAlign=middle;whiteSpace=wrap;overflow=hidden;fontSize=14;" parent="1" vertex="1">
          <mxGeometry x="238.63" y="20" width="70" height="20" as="geometry" />
        </mxCell>
        <mxCell id="-TSQm9L5DB0IVxmXl4sb-17" value="" style="verticalLabelPosition=bottom;verticalAlign=top;html=1;strokeWidth=4;shape=mxgraph.flowchart.on-page_reference;plain-blue;gradientColor=#EA6B66;strokeColor=#B85450;fillColor=#F8CECC;" parent="1" vertex="1">
          <mxGeometry x="719" y="5" width="30" height="30" as="geometry" />
        </mxCell>
        <mxCell id="-TSQm9L5DB0IVxmXl4sb-18" value="&lt;b&gt;M&lt;/b&gt;" style="whiteSpace=wrap;html=1;verticalAlign=top;fillColor=#D5E8D4;strokeColor=#000000;strokeWidth=4;gradientColor=none;" parent="1" vertex="1">
          <mxGeometry x="401.75" y="125" width="30" height="30" as="geometry" />
        </mxCell>
        <mxCell id="-TSQm9L5DB0IVxmXl4sb-19" value="" style="endArrow=classic;html=1;strokeWidth=1;fontFamily=Courier New;fontColor=#009900;" parent="1" edge="1">
          <mxGeometry width="50" height="50" relative="1" as="geometry">
            <mxPoint x="507.65999999999985" y="180" as="sourcePoint" />
            <mxPoint x="462.25" y="120" as="targetPoint" />
          </mxGeometry>
        </mxCell>
        <mxCell id="-TSQm9L5DB0IVxmXl4sb-20" value="&lt;span style=&quot;text-align: center&quot;&gt;UAT Start&lt;br&gt;&lt;/span&gt;" style="text;html=1;strokeColor=none;fillColor=none;align=left;verticalAlign=middle;whiteSpace=wrap;overflow=hidden;fontSize=12;fontStyle=0;fontColor=#000000;" parent="1" vertex="1">
          <mxGeometry x="474.13" y="180" width="71.5" height="20" as="geometry" />
        </mxCell>
        <mxCell id="-TSQm9L5DB0IVxmXl4sb-21" value="&lt;div&gt;&lt;b&gt;&lt;font style=&quot;font-size: 13px&quot;&gt;M&lt;/font&gt;&lt;/b&gt;&lt;/div&gt;" style="whiteSpace=wrap;html=1;verticalAlign=top;fillColor=#DAE8FC;strokeColor=#000000;strokeWidth=4;gradientColor=none;align=center;" parent="1" vertex="1">
          <mxGeometry x="574" y="45" width="30" height="30" as="geometry" />
        </mxCell>
        <mxCell id="-TSQm9L5DB0IVxmXl4sb-22" value="" style="edgeStyle=orthogonalEdgeStyle;curved=1;rounded=0;orthogonalLoop=1;jettySize=auto;html=1;endArrow=none;endFill=0;strokeWidth=4;fontFamily=Courier New;fontSize=16;exitX=0.5;exitY=0;exitDx=0;exitDy=0;" parent="1" source="-TSQm9L5DB0IVxmXl4sb-21" edge="1">
          <mxGeometry relative="1" as="geometry">
            <mxPoint x="614" y="70" as="sourcePoint" />
            <mxPoint x="652.25" y="-10" as="targetPoint" />
          </mxGeometry>
        </mxCell>
        <mxCell id="-TSQm9L5DB0IVxmXl4sb-23" value="" style="verticalLabelPosition=bottom;verticalAlign=top;html=1;strokeWidth=4;shape=mxgraph.flowchart.on-page_reference;strokeColor=#2D7600;fillColor=#60a917;fontColor=#ffffff;" parent="1" vertex="1">
          <mxGeometry x="637" y="-40" width="30" height="30" as="geometry" />
        </mxCell>
        <mxCell id="-TSQm9L5DB0IVxmXl4sb-24" value="Tag: 1.1.0" style="text;html=1;strokeColor=none;fillColor=none;align=center;verticalAlign=middle;whiteSpace=wrap;overflow=hidden;fontSize=14;" parent="1" vertex="1">
          <mxGeometry x="617" y="-70" width="70" height="20" as="geometry" />
        </mxCell>
        <mxCell id="-TSQm9L5DB0IVxmXl4sb-25" value="&lt;span style=&quot;text-align: center&quot;&gt;UAT End&lt;br&gt;&lt;/span&gt;" style="text;html=1;strokeColor=none;fillColor=none;align=left;verticalAlign=middle;whiteSpace=wrap;overflow=hidden;fontSize=12;fontStyle=0;fontColor=#000000;" parent="1" vertex="1">
          <mxGeometry x="470.25" y="-30" width="52" height="20" as="geometry" />
        </mxCell>
        <mxCell id="-TSQm9L5DB0IVxmXl4sb-26" value="" style="endArrow=classic;html=1;strokeWidth=1;fontFamily=Courier New;fontColor=#009900;exitX=1;exitY=1;exitDx=0;exitDy=0;" parent="1" source="-TSQm9L5DB0IVxmXl4sb-25" edge="1">
          <mxGeometry width="50" height="50" relative="1" as="geometry">
            <mxPoint x="581.6599999999999" y="190" as="sourcePoint" />
            <mxPoint x="592.25" y="20" as="targetPoint" />
          </mxGeometry>
        </mxCell>
        <mxCell id="-TSQm9L5DB0IVxmXl4sb-27" value="Release branches" style="text;html=1;strokeColor=none;fillColor=none;align=left;verticalAlign=middle;whiteSpace=wrap;overflow=hidden;fontSize=14;fontStyle=0;fontColor=#009900;" parent="1" vertex="1">
          <mxGeometry x="75.5" y="-40" width="132.25" height="20" as="geometry" />
        </mxCell>
        <mxCell id="-TSQm9L5DB0IVxmXl4sb-28" value="Tag: 1.1.0" style="text;html=1;strokeColor=none;fillColor=none;align=center;verticalAlign=middle;whiteSpace=wrap;overflow=hidden;fontSize=14;" parent="1" vertex="1">
          <mxGeometry x="554" y="-15" width="70" height="20" as="geometry" />
        </mxCell>
        <mxCell id="-TSQm9L5DB0IVxmXl4sb-29" style="edgeStyle=orthogonalEdgeStyle;curved=1;rounded=0;orthogonalLoop=1;jettySize=auto;html=1;exitX=0.855;exitY=0.855;exitDx=0;exitDy=0;exitPerimeter=0;entryX=0;entryY=0.5;entryDx=0;entryDy=0;entryPerimeter=0;endArrow=classicThin;endFill=1;strokeWidth=4;fontFamily=Courier New;fontColor=#009900;" parent="1" source="-TSQm9L5DB0IVxmXl4sb-23" target="-TSQm9L5DB0IVxmXl4sb-17" edge="1">
          <mxGeometry relative="1" as="geometry">
            <mxPoint x="677" y="-10" as="sourcePoint" />
            <mxPoint x="730.9999999999995" y="69" as="targetPoint" />
            <Array as="points">
              <mxPoint x="662.25" y="20" />
            </Array>
          </mxGeometry>
        </mxCell>
        <mxCell id="-TSQm9L5DB0IVxmXl4sb-30" style="edgeStyle=orthogonalEdgeStyle;curved=1;rounded=0;orthogonalLoop=1;jettySize=auto;html=1;entryX=0.5;entryY=0;entryDx=0;entryDy=0;entryPerimeter=0;endArrow=none;endFill=0;strokeWidth=4;fontFamily=Courier New;fontColor=#009900;startArrow=classic;startFill=1;" parent="1" source="-TSQm9L5DB0IVxmXl4sb-23" target="-TSQm9L5DB0IVxmXl4sb-17" edge="1">
          <mxGeometry relative="1" as="geometry">
            <mxPoint x="821.25" y="-70" as="sourcePoint" />
            <mxPoint x="875.2499999999995" y="9" as="targetPoint" />
          </mxGeometry>
        </mxCell>
        <mxCell id="-TSQm9L5DB0IVxmXl4sb-31" style="edgeStyle=orthogonalEdgeStyle;curved=1;rounded=0;orthogonalLoop=1;jettySize=auto;html=1;exitX=0.855;exitY=0.855;exitDx=0;exitDy=0;exitPerimeter=0;endArrow=classicThin;endFill=1;strokeWidth=4;fontFamily=Courier New;fontColor=#009900;fillColor=#f8cecc;strokeColor=#b85450;" parent="1" edge="1">
          <mxGeometry relative="1" as="geometry">
            <mxPoint x="749" y="20" as="sourcePoint" />
            <mxPoint x="805.25" y="60" as="targetPoint" />
          </mxGeometry>
        </mxCell>
        <mxCell id="-TSQm9L5DB0IVxmXl4sb-32" value="" style="endArrow=classic;html=1;strokeWidth=1;fontFamily=Courier New;fontColor=#009900;" parent="1" edge="1">
          <mxGeometry width="50" height="50" relative="1" as="geometry">
            <mxPoint x="723" y="205" as="sourcePoint" />
            <mxPoint x="723" y="155" as="targetPoint" />
          </mxGeometry>
        </mxCell>
        <mxCell id="-TSQm9L5DB0IVxmXl4sb-33" value="" style="edgeStyle=orthogonalEdgeStyle;rounded=0;html=1;jettySize=auto;orthogonalLoop=1;plain-blue;endArrow=none;endFill=0;strokeWidth=4;strokeColor=#000000;" parent="1" edge="1">
          <mxGeometry x="665.3399999999999" y="60" as="geometry">
            <mxPoint x="665.3400000000001" y="60" as="sourcePoint" />
            <mxPoint x="873.5900000000001" y="60" as="targetPoint" />
          </mxGeometry>
        </mxCell>
        <mxCell id="-TSQm9L5DB0IVxmXl4sb-34" style="edgeStyle=orthogonalEdgeStyle;curved=1;rounded=0;html=1;exitX=1;exitY=0.5;exitPerimeter=0;entryX=0;entryY=0.5;entryPerimeter=0;endArrow=none;endFill=0;jettySize=auto;orthogonalLoop=1;strokeWidth=4;fontSize=15;" parent="1" target="-TSQm9L5DB0IVxmXl4sb-36" edge="1">
          <mxGeometry relative="1" as="geometry">
            <mxPoint x="665.3400000000001" y="60" as="sourcePoint" />
          </mxGeometry>
        </mxCell>
        <mxCell id="-TSQm9L5DB0IVxmXl4sb-35" style="edgeStyle=orthogonalEdgeStyle;curved=1;rounded=0;html=1;exitX=1;exitY=0.5;exitPerimeter=0;entryX=0;entryY=0.5;entryPerimeter=0;endArrow=none;endFill=0;jettySize=auto;orthogonalLoop=1;strokeWidth=4;fontSize=15;" parent="1" source="-TSQm9L5DB0IVxmXl4sb-36" edge="1">
          <mxGeometry relative="1" as="geometry">
            <mxPoint x="780.3400000000001" y="140" as="targetPoint" />
          </mxGeometry>
        </mxCell>
        <mxCell id="-TSQm9L5DB0IVxmXl4sb-36" value="" style="verticalLabelPosition=bottom;verticalAlign=top;html=1;strokeWidth=4;shape=mxgraph.flowchart.on-page_reference;plain-purple;gradientColor=none;strokeColor=#000000;fillColor=#D5E8D4;" parent="1" vertex="1">
          <mxGeometry x="708.3399999999999" y="125" width="30" height="30" as="geometry" />
        </mxCell>
        <mxCell id="-TSQm9L5DB0IVxmXl4sb-37" style="edgeStyle=orthogonalEdgeStyle;curved=1;rounded=0;html=1;endArrow=classic;endFill=1;jettySize=auto;orthogonalLoop=1;strokeWidth=4;fontSize=15;" parent="1" edge="1">
          <mxGeometry relative="1" as="geometry">
            <mxPoint x="812.8400000000001" y="140" as="sourcePoint" />
            <mxPoint x="880" y="60" as="targetPoint" />
          </mxGeometry>
        </mxCell>
        <mxCell id="-TSQm9L5DB0IVxmXl4sb-38" value="&lt;b&gt;M&lt;/b&gt;" style="whiteSpace=wrap;html=1;verticalAlign=top;fillColor=#D5E8D4;strokeColor=#000000;strokeWidth=4;gradientColor=none;" parent="1" vertex="1">
          <mxGeometry x="782.3399999999999" y="125" width="30" height="30" as="geometry" />
        </mxCell>
        <mxCell id="-TSQm9L5DB0IVxmXl4sb-39" style="edgeStyle=orthogonalEdgeStyle;curved=1;rounded=0;orthogonalLoop=1;jettySize=auto;html=1;endArrow=classicThin;endFill=1;strokeWidth=4;fontFamily=Courier New;fontColor=#009900;" parent="1" edge="1">
          <mxGeometry relative="1" as="geometry">
            <mxPoint x="802.25" y="60" as="sourcePoint" />
            <mxPoint x="822.25" y="140" as="targetPoint" />
          </mxGeometry>
        </mxCell>
        <mxCell id="-TSQm9L5DB0IVxmXl4sb-40" value="" style="endArrow=classic;html=1;strokeWidth=1;fontFamily=Courier New;fontColor=#009900;" parent="1" edge="1">
          <mxGeometry width="50" height="50" relative="1" as="geometry">
            <mxPoint x="592.25" y="140" as="sourcePoint" />
            <mxPoint x="592.25" y="80" as="targetPoint" />
          </mxGeometry>
        </mxCell>
        <mxCell id="-TSQm9L5DB0IVxmXl4sb-41" value="&lt;span style=&quot;text-align: center&quot;&gt;UAT Fix&lt;br&gt;&lt;/span&gt;" style="text;html=1;strokeColor=none;fillColor=none;align=left;verticalAlign=middle;whiteSpace=wrap;overflow=hidden;fontSize=12;fontStyle=0;fontColor=#000000;" parent="1" vertex="1">
          <mxGeometry x="567.25" y="140" width="52" height="20" as="geometry" />
        </mxCell>
        <mxCell id="-TSQm9L5DB0IVxmXl4sb-47" value="" style="verticalLabelPosition=bottom;verticalAlign=top;html=1;strokeWidth=4;shape=mxgraph.flowchart.on-page_reference;strokeColor=#2D7600;fillColor=#60a917;fontColor=#ffffff;" parent="1" vertex="1">
          <mxGeometry x="902.25" y="-50" width="30" height="30" as="geometry" />
        </mxCell>
      </root>
    </mxGraphModel>
  </diagram>
</mxfile>
